<?xml version="1.0" encoding="UTF-8" standalone="no"?>
<svg
   xmlns:dc="http://purl.org/dc/elements/1.1/"
   xmlns:cc="http://creativecommons.org/ns#"
   xmlns:rdf="http://www.w3.org/1999/02/22-rdf-syntax-ns#"
   xmlns:svg="http://www.w3.org/2000/svg"
   xmlns="http://www.w3.org/2000/svg"
   xmlns:sodipodi="http://sodipodi.sourceforge.net/DTD/sodipodi-0.dtd"
   xmlns:inkscape="http://www.inkscape.org/namespaces/inkscape"
   width="210mm"
   height="297mm"
   viewBox="0 0 210 297"
   version="1.1"
   id="svg8"
   inkscape:version="1.0.2-2 (e86c870879, 2021-01-15)"
   sodipodi:docname="gt.svg">
  <defs
     id="defs2" />
  <sodipodi:namedview
     id="base"
     pagecolor="#ffffff"
     bordercolor="#666666"
     borderopacity="1.0"
     inkscape:pageopacity="0.0"
     inkscape:pageshadow="2"
     inkscape:zoom="4.1676048"
     inkscape:cx="161.00896"
     inkscape:cy="387.63056"
     inkscape:document-units="mm"
     inkscape:current-layer="g9216"
     inkscape:document-rotation="0"
     showgrid="false"
     inkscape:object-paths="false"
     inkscape:snap-intersection-paths="false"
     inkscape:snap-midpoints="false"
     inkscape:snap-bbox="true"
     inkscape:window-width="1920"
     inkscape:window-height="1017"
     inkscape:window-x="-8"
     inkscape:window-y="-8"
     inkscape:window-maximized="1" />
  <metadata
     id="metadata5">
    <rdf:RDF>
      <cc:Work
         rdf:about="">
        <dc:format>image/svg+xml</dc:format>
        <dc:type
           rdf:resource="http://purl.org/dc/dcmitype/StillImage" />
        <dc:title></dc:title>
      </cc:Work>
    </rdf:RDF>
  </metadata>
  <g
     inkscape:label="Στρώση 1"
     inkscape:groupmode="layer"
     id="layer1">
    <g
       style="fill:#7c7c7c;stroke:#ffffff;stroke-width:2;stroke-linecap:round;stroke-linejoin:round"
       id="g9216"
       transform="matrix(0.26458333,0,0,0.26458333,-24.619909,-22.202131)">
      <path
         d="m 155.6,572.7 2.8,1.6 3.6,-0.9 4.6,1.9 4.1,3.2 1.7,3.1 1.9,3.8 7.7,5.1 1.1,4.3 -1.5,-1.8 -3.2,-1.7 -3.8,-1.1 -3,-0.2 -1.7,0.7 -1,1.3 -0.8,1.2 -0.8,0.6 -1.4,0.7 v 1.7 l 1.1,2.4 -0.2,1.9 -0.5,0.9 -1.3,0.2 h -2.3 l -0.8,-0.6 -3.5,-4.3 -5.5,-4.6 -2.7,-2.8 -0.2,-2.3 -2.5,-2.2 -4.3,-5.9 -2.5,-1.7 0.7,-1.6 -0.5,-2.4 0.7,-0.9 -0.9,-1 4.5,-6.6 2.9,-2.7 2.6,0.6 0.1,0.8 2.8,5.4 0.8,2.8 z m -20.3,-88.8 6.1,17.6 0.2,1.2 -0.2,2.2 -0.7,1.1 -1,1 -1.3,1.6 0.9,1.3 2.6,5.1 1.4,0.6 1.6,-1.3 1.5,-1.8 1,-0.5 -0.5,1.6 2.1,0.4 0.7,1.5 0.2,2 0.8,1.9 4.8,4.4 1.2,3.7 4,5.6 0.9,2.3 0.3,2.3 -0.4,2.4 -1.1,2.4 -0.6,0.1 -2.9,-0.7 -1,0.2 -1.3,0.7 -1.1,0.2 -1.7,-0.6 -1.4,-1.3 -2.7,-3.2 -3.3,-1.9 -4.3,-1.2 -3.8,0.6 -1.8,3.6 -2.1,-1.7 -4.1,-1.2 -1.5,-2 -0.4,-1.3 -0.2,-2.6 -0.2,-1.1 -1.9,-3.2 -0.4,-1.6 1.4,0.4 1.9,1.9 1.3,0.7 v -1.1 l -1.8,-1.7 -1.1,-2.2 -3,-7.8 -1.4,-2.1 -1.1,-0.4 -0.8,2.4 v 2.4 l 0.9,4.7 -0.2,2.8 -1,2.5 -1.5,1.1 -1.5,0.7 -1.4,1.6 h -0.7 l -0.7,-2.5 -3.2,-1.8 -0.7,-2.6 0.4,-1.2 0.9,-1.5 0.7,-1.4 -0.2,-1.3 -0.4,-1.2 0.2,-1 0.7,-0.8 0.7,-0.5 1.5,-1.7 1.4,-3.8 0.7,-4.7 0.2,-4.5 0.6,2.1 0.2,0.9 h 0.8 l 1.5,-2.9 0.9,1.1 0.8,2.6 1.4,2.1 1,-1.2 0.4,0.9 0.4,1.5 0.9,0.8 1.2,-0.5 1.9,-2.1 2.7,-1.4 1,-2.4 0.1,-2.9 -1,-2.6 2.3,1 -1.4,-4.8 -0.1,-1.1 0.2,-1.9 0.3,-1.5 0.1,-1.3 -0.6,-1.3 v -0.9 z m 11.5,-1.6 -0.7,2.1 -0.8,1.4 2,-0.1 1.2,0.5 1,0.9 1.2,0.8 -0.7,2.9 -0.8,2.5 -2.3,4.5 0.8,0.5 1.2,0.4 1.3,0.1 1.3,-0.1 v -0.9 l -1.5,-1.1 h 2.3 l -0.8,-1 1.4,0.4 1.2,0.7 2.1,1.9 H 154 l 0.6,3.9 0.8,1.4 1.5,0.6 v 1 l -3.1,0.5 -1.9,0.6 -1.5,-0.4 -2,-2.6 0.8,-1 -1.7,-1.9 -1.5,-2.1 -2.2,-4.9 -0.2,-1.1 -0.3,-3.3 -0.3,-1.5 -0.9,-0.9 -1.2,-0.8 -0.8,-1.3 0.6,-2 1.8,1.2 0.9,-0.8 1.2,-3.4 2,0.6 z m 26.3,-9.2 h -1.5 v -1 l 4.3,-6.8 1,-0.1 -2.5,3.6 -1.1,2.3 z m -3.3,-5.1 -0.9,0.3 -0.3,-1.4 0.3,-1.6 2,-3.7 1.8,-2 2,-0.8 2.6,-0.6 0.8,0.5 0.1,1.5 -1.3,1.6 -1.4,1.2 -1.6,1 -1.9,0.9 -1.2,1.4 z m -10.1,-12.4 1.2,0.7 h 0.7 v 0.5 l -1,1.6 -0.9,0.9 -2.9,0.8 -0.4,1.7 1.6,1.3 1.1,1.3 0.8,0.6 1.1,1.4 -1.5,-0.6 -4,-3.8 -1.6,-3.7 1.1,-1.7 1.7,-0.4 2.4,-1.2 z m -10.1,-1.8 0.8,0.4 0.5,-1.1 0.6,-1.6 0.8,-1.2 0.1,2.1 -0.3,7.8 -0.6,1.7 -0.7,0.2 -0.8,-1.9 h -0.8 l 0.8,3 -1.6,-1 -0.1,1.1 -0.6,1.9 -1.9,-1 -1.8,0.3 -0.9,1.2 0.7,1.5 v 0.9 l -1.2,-0.1 -0.7,-0.5 -0.1,-1 0.4,-1.3 -2.2,-0.4 -1.3,-2.9 -1.9,1.3 -1,1.4 -1.2,2.1 -1.6,3.5 h -0.8 l 0.1,-3.7 1.9,-13.9 2.1,-4.8 0.5,-2.9 1.9,-5.4 1.1,-0.6 0.9,-1.4 1.5,-3 1.4,-1.7 2.1,-1.8 2.5,-1.3 0.4,1.2 1.4,0.7 1.7,2 0.5,2.2 0.1,2.1 0.7,1.6 -0.6,1.7 0.1,1.4 0.5,2.3 v 2 l -0.4,0.9 -2.7,3.8 -0.5,1.2 z m -52,-67.4 0.9,1.2 1.5,1.1 -1.3,0.4 -2.2,-1.6 -0.9,0.1 -0.5,-1.1 0.3,-0.7 1.2,-0.6 z m -5.3,-7.9 1.3,3.4 -2.3,-0.1 -1.4,-0.4 -1.1,-0.9 -2.3,-3 -1.2,-2 -0.3,-1.8 1.7,-0.9 1.7,2 2,1.6 z m -73.4,-81.3 -0.8,0.5 -0.9,-0.4 -0.4,-1 -1.1,-1.7 0.4,-1 1.9,2.1 z m 44,-4.8 0.6,1.4 h 0.7 v -1.1 H 65 l -0.2,4.6 -1.4,2.6 -2.3,1.6 -6.9,2.9 -1.2,0.9 -0.6,1.7 0.4,1.9 0.9,1.4 1.3,0.6 v 1.1 h -1.6 v 0.9 l 6.6,3.4 2.7,0.6 -0.4,3.2 -0.8,0.6 -1.9,-0.7 1.3,3 2.4,15.3 0.4,0.8 1.3,0.9 1.5,0.6 3.2,0.7 1.5,0.6 2.3,1.8 1.1,0.3 2,-0.1 1.6,-0.6 1,-0.7 0.9,0.3 1.1,2 0.6,1.6 1,4.4 1.3,2.1 0.1,1 -1.4,0.9 -1,-0.8 -2.8,-0.9 -2.6,-1.9 -1.9,-0.8 -1.9,-0.5 -1.8,-0.1 -1,-0.6 -2.9,-2.6 -1.1,-0.7 -1.9,-0.3 h -1.6 l -1.4,-0.3 1.2,-1.1 0.6,-1.4 -3.9,-1.3 -1.5,-0.7 -0.1,1.1 -1.5,-2.2 -1.2,-3 -0.8,-3 -0.8,-6.2 -1.3,-3 -2.1,-2.4 -2.9,-2.2 -2.6,-1.3 -1.4,-1.1 -3.1,-6.7 -0.3,-1 h -2 l -1.3,-0.2 -0.9,-0.8 -0.8,-2 0.3,-3.4 -0.6,-1.1 -2.1,1.4 0.1,-2.3 -0.4,-1.7 -1,-0.9 h -1.7 l 1.1,-1.2 2.9,-4.2 0.6,-1.3 1.1,-0.2 10.4,-0.4 3.3,-0.7 3,-1.3 3,-1.9 1.5,0.5 1.1,0.8 0.9,1 1.1,0.8 2.9,0.9 z M 7,281.5 4.4,285.2 2.6,285.7 1.9,285.4 1.2,284.6 1,283.2 1.4,282 l 1,-0.5 2.1,0.5 1.5,-0.6 z m 17,-1.9 -1,0.6 -1.1,-2.3 1.1,-1.3 2.2,1.3 -0.2,1.7 z"
         id="GRC2883"
         name="Ionioi Nisoi" />
      <path
         d="m 446.3,857.9 h -0.7 l -0.7,-1.3 -2.8,-2.9 -0.9,-1.5 -0.8,-1.7 -1,-3 0.6,0.1 0.1,0.8 2,1.6 2.3,0.9 1.6,2.1 z m -31.4,-52.1 -0.2,8.2 -0.6,0.2 -1.7,-0.2 -2,-0.5 -1.3,0.2 -1.3,1.4 -0.4,-2.1 -1.2,-0.9 -3.1,-0.9 -0.1,-0.5 0.2,-1.1 -0.5,-0.3 h -1.9 l -0.6,-0.9 -1,-2.2 -0.7,-0.8 1,-7.8 -0.1,-3.2 -0.9,-3.3 -0.6,-1.5 -0.4,-1.2 0.2,-1.5 3.5,-6 1.4,-1.1 1.3,0.8 4.5,8.3 1.7,2.2 7.4,5.3 1.9,2.3 1.1,2.4 -0.7,0.6 h -1.7 l -1.8,0.9 -0.9,1.4 z m 94,-88.5 -0.5,0.3 -0.8,-0.6 -0.1,-1 h 0.9 z m -47.5,-10.1 -0.4,0.3 -0.6,-0.3 -0.6,-1.4 v -0.7 l -0.3,-1.1 0.7,0.2 0.4,0.9 0.5,0.6 z m -34.3,-47.7 -1.2,0.6 -2.3,-0.6 -1.4,-1.3 -1.1,-1.6 -1.7,-1.5 0.8,-0.8 0.9,-0.7 1,-0.3 1.2,-0.1 0.6,0.5 1.9,1.1 0.8,0.8 0.5,1 0.2,1.5 z m 43.4,-15 -2.8,0.5 -2,-0.5 0.4,2.8 -1.3,1.4 -2.4,0.5 h -2.5 l -6.4,1.9 -2.5,0.1 v -1 l 10,-6.8 2.7,-0.8 5.1,-0.1 2.3,-1 h 3.8 l -1.8,1.8 z M 515,628.4 h -1 l -0.9,-0.5 -1.2,-1.9 -2.1,-1.4 0.2,-0.6 1.1,0.6 1.3,0.3 1.6,1.3 z m -49.2,-7 -2.8,0.4 -2.9,-0.4 -2.2,-1.3 v -0.9 l 3.2,-0.8 1.2,-1 0.3,-2.2 0.6,0.2 0.1,0.8 0.9,1.4 1,1 1.2,0.5 1.6,0.1 v 0.9 z m -7.2,13.9 -0.1,-3.6 -1.2,-1.7 H 453 l -2.2,1.1 -5.6,-1.4 -2,0.4 -3.3,-3.3 -1.9,-0.3 -3.5,-2.6 -5.5,-1.7 -1.7,-1.9 -0.8,-2 0.7,-3.8 2.6,-6.1 0.1,-0.6 0.3,0.1 4.5,3.6 0.9,-1.1 4.1,4.1 1.1,0.3 0.9,0.4 2.3,1.9 1.2,0.8 1.5,0.3 2.7,-1.8 -0.2,-3.8 -2,-3.7 -3.2,-1.4 v -1 l 1.9,-1.5 2.1,-0.9 5.7,-0.5 1.2,1.7 -0.6,3.8 -1.5,4 -1.8,2.1 1.1,1.3 1.2,0.8 1.4,0.6 1.6,0.3 v 1 l -2.1,0.8 -0.9,0.1 v 1 h 0.8 l 1,0.4 2.8,0.5 2.6,1.7 2.3,0.8 5.2,4.4 -0.8,1 0.8,1 v 0.9 l -2.3,1.3 -6.6,2.2 z M 516.1,603 h -1.3 l -0.6,-0.6 0.3,-1.5 h 1.7 l 0.7,0.8 v 1.2 z m 17.4,-0.7 -0.7,-0.5 -0.1,-1.3 3,-11.9 1.3,-1.4 h 0.6 l 0.9,2.7 -0.3,1.6 -0.5,0.6 -0.8,0.6 -0.4,1.2 -0.3,1.2 -0.6,1.4 v 0.4 l -0.9,2.4 -0.4,0.7 -0.8,1.6 z m -69,-5.2 -1.2,0.7 -1.4,-1.4 -1.6,-0.6 v -1 l 1.3,-0.8 -0.1,-1.3 -1,-1.3 -1.4,-0.5 -1.4,-0.9 -0.8,-2.1 -0.3,-2 0.1,-0.9 13.6,-0.9 1.9,0.9 -0.7,1.5 -1.3,1.8 0.1,1.7 -1.6,1.1 -0.3,1.6 0.1,1.6 -0.5,1.5 -0.9,0.6 z m 30.3,-13.2 0.4,0.9 -0.4,0.8 -0.8,0.2 -0.5,-1 h 0.6 l -0.2,-0.8 z m -26.1,-29.2 0.3,1.8 1.2,1.5 0.1,0.7 h 3.1 l -3.9,1.9 0.5,1.5 -2.4,2.1 -0.4,2.2 h -0.7 l -1.2,-1 -1.1,0.8 -1.2,1.5 -1.6,0.8 -1.6,-0.2 -3.5,-1.1 -1.5,-0.8 -0.7,-1 v -0.9 l 0.8,-1.4 1.5,-1.6 1.9,-0.9 3.3,1 1.5,-1.3 1.1,-2.1 0.7,-1.5 -1.4,0.1 -1.8,1.5 -1,0.4 -1,-0.2 -2.1,-0.9 h -1.3 l 4,-1.9 -1.5,-0.8 -1.6,-1.2 1.2,-0.2 1.3,0.1 1.1,0.4 1,0.7 0.5,-1.3 -0.5,-0.6 0.9,-0.7 0.9,-0.3 1,-0.1 2.6,0.4 1.4,0.6 0.7,0.9 z m -41.9,5.7 -2,-5.2 -3.5,-6.5 -3.9,-5.3 2.8,-0.4 8.1,-2.4 1.9,-2.2 1.9,-0.5 1.1,-0.8 -0.7,-1.7 -1.8,-1.6 -2.1,-0.7 v -1.9 l 1.4,-0.2 2.5,-0.6 1.5,-0.2 v -1.1 l -1.2,-0.1 0.5,-0.2 -0.2,-1 -5,-1.6 6.4,0.1 3.8,0.7 1.5,-1.7 0.9,-6.5 1.5,-1.8 2.2,-1.1 4.2,-1.2 1.7,1.1 1.1,2.5 -1.1,1.8 -0.3,1.9 1.7,1.5 1.9,0.3 2,-0.4 1.8,1.1 4.4,6.3 1.8,1.1 3.8,0.7 1.7,1.5 1.9,0.3 4.1,-2.8 3,-3.3 1,-13.6 2.3,-3.9 3.9,-3.6 6.4,-2 3.1,-1.5 0.4,-0.7 1.7,-0.3 2.6,1.6 1.2,0.3 10.9,4.6 2.3,0.3 2,0.7 1.8,1.7 2.7,3.6 5.4,4.4 0.9,1 0.4,0.9 2.1,0.8 0.5,1.2 -0.6,2.2 0.2,1.1 1.2,1.1 -1.2,0.4 -0.6,1.1 -0.4,1.6 -0.2,1.8 -0.7,-2 -1.7,0.3 -5.5,3 0.1,2.9 1.7,6.2 0.5,2.6 1,2 1.1,1.5 0.5,1.2 -0.3,1.4 -1.5,3 -0.5,1.5 v 1.2 l 0.3,1.4 0.1,1.6 -0.4,1.7 1.2,-0.1 1.3,0.4 1,1 0.4,1.5 -0.5,0.7 -3.4,1.3 0.8,0.9 1,0.7 1.2,0.4 h 1.6 l -0.7,1 0.6,0.1 1.7,0.8 -0.7,1.3 -0.2,1 0.3,0.8 0.6,0.8 -1.1,0.7 -0.5,1.3 2.7,1.7 0.9,1.3 0.3,2.4 -0.2,3.1 -0.4,1.6 -2.6,2.7 1.6,0.9 v 1 h -1.6 v 0.9 l 0.7,0.1 0.2,0.5 -0.9,1.4 1.5,1.4 -1,1.6 -1.9,1.8 -1.6,2 -1.3,-0.8 -4.3,-1.8 -1.7,-0.4 -2,-0.6 -0.8,-1.8 0.1,-5.3 h -0.8 l -1.6,0.8 -1,-2.6 -1.2,-6 -1.6,1 -0.8,-2.3 -1.8,-2.4 -2,-1.5 -1.6,0.3 -1.3,-1.2 -0.3,-0.7 h -0.7 l -0.7,3 h -1.1 l -1.2,-0.5 -0.9,1.4 -0.2,-1.7 -0.4,-0.4 -1,0.1 0.7,-1.7 -0.5,-1.6 -2.4,-2.6 -0.3,-2.7 -4.7,-7 -0.4,-2 -1.9,-0.9 -1.9,0.4 -1.9,0.9 -2.1,0.6 v -1 l 1.1,-0.5 0.4,-0.4 0.1,-1 -1.7,0.7 -1,-0.8 -0.9,-1.3 -1.4,-0.6 -1.6,-0.1 -1.4,-0.2 -1.1,-0.6 -0.9,-1.1 4,-3.7 1,-2.1 -0.8,-2.5 -1,-1.1 -0.8,-0.1 -1.6,0.6 h -4.3 l -1.2,0.3 -1.3,1.4 -0.6,0.3 -2.7,0.2 -1.1,0.3 -1.2,0.6 -4.3,3.8 -1.9,1 3.9,1 -2.3,0.9 -9,-0.9 -11.6,1 -4.2,2.1 z"
         id="GRC2884"
         name="Attiki" />
      <path
         d="m 407.2,767.6 0.4,0.8 -0.4,1.7 -1.3,-1 -0.5,-1.2 -0.5,-0.3 -1.6,0.2 -0.5,0.3 -0.7,0.9 -1,0.2 -0.7,-0.6 v -0.9 l 0.4,-1.2 0.7,-0.6 0.7,-0.3 0.5,-1.3 0.8,-0.8 1.1,-0.6 0.8,-0.2 0.8,0.5 0.6,1.2 z m -136,-34.2 -0.1,2.9 -1.3,-1.7 -0.2,-1.2 -1.5,1.1 0.6,-4.1 0.4,-1.5 0.5,-0.3 1.8,0.9 0.2,1.6 z m -6.8,-10.8 1.3,0.3 v 0.8 l -1.5,1.1 v 1.4 l -0.7,1.4 -0.9,1.3 -0.7,1.6 0.1,-4.9 0.5,-2.2 0.9,-1.5 z m -18.6,-34.4 -0.4,-0.6 -0.7,-0.4 -0.7,-1.3 1.8,-1 0.6,1.5 -0.3,0.5 v 1.1 z m 171.6,-144.8 3.9,5.3 3.5,6.5 2,5.2 -2,1.5 -5.4,2.7 -4.7,-2 -1.1,0.5 -0.9,-0.1 -2.2,-0.4 -0.4,0.8 v 1.6 l -0.1,1.7 -1,0.7 -0.8,1.4 0.5,2.7 1.5,2.2 2.2,-0.4 2,1 2.7,0.3 2.6,-0.3 1.9,-1 3.7,3.5 1.9,1.5 2.1,0.9 -0.5,1.4 -0.1,1.3 0.1,1.2 0.5,1 -1.5,0.3 -2.1,1.3 -2.5,0.4 -0.3,0.5 -0.5,2.3 2.8,2.2 1.5,0.7 1.9,0.1 -1.1,3.3 -0.3,2.2 0.4,2.1 1,3.1 H 427 l 0.3,3.1 0.5,1.3 2.1,0.8 -0.1,0.6 -2.6,6.1 -0.7,3.8 0.8,2 1.7,1.9 5.5,1.7 3.5,2.6 1.9,0.3 3.3,3.3 2,-0.4 5.6,1.4 2.2,-1.1 h 4.3 l 1.2,1.7 0.1,3.6 -13.4,0.7 -1.9,-0.3 0.3,1.4 0.4,0.5 -4.1,-0.5 -1.5,0.1 0.2,1.5 -3.9,0.9 v 1.3 l 0.8,0.7 1.2,0.1 1.1,-0.2 -0.7,1.1 v 0.8 l 0.9,0.2 2.1,0.9 -1.8,0.8 -2,0.2 -4.2,-0.1 -2.3,0.4 -0.1,1.2 1,1.8 1,2.4 -2.3,0.5 -1.6,-0.1 -1.4,-0.5 -1.7,-0.9 v -1 h 2.3 v -0.9 l -1.3,-0.4 -1.6,0.3 -1.4,-0.1 -1.1,-1.7 2.4,1 -0.6,-1.3 -0.8,-1 -2.5,-1.7 -0.9,1 h -1.1 l -1.1,-0.7 -0.3,-4.7 0.3,-1.8 1.2,1 1.3,0.7 1.1,-1.1 0.9,-2 0.1,-2 2.5,1.4 0.6,-0.4 -0.5,-1.3 -0.2,-2.2 -0.3,-0.8 -1.6,-0.6 -0.8,-0.5 -1.6,-0.8 -3.9,1 -1.8,-0.7 1.5,-1 -1.5,-2.9 -2.8,1.7 -1.1,0.9 -0.8,1.3 -1.5,-5.1 -1.2,-1.9 -1.9,-1.8 -0.5,-0.1 -1.3,0.2 -1,-0.6 -0.3,-1.4 -1.6,-0.7 -0.4,0.6 0.5,1.1 -2.3,-1 -2,0.3 -1.7,1.1 -1.7,1.5 -0.8,-0.9 -3.2,-2 0.8,-2 -1.4,-0.6 -1.3,-1.1 -0.7,-1.1 0.3,-1.1 -1.1,-1.7 -1.2,-1.2 -2.4,1 -2.1,1.3 -1.3,2.1 -0.4,3.5 0.3,0.7 1,1.7 0.2,0.9 -0.1,0.9 -0.5,1.7 -0.1,0.8 0.5,1.6 1.2,1.4 0.6,0.9 0.1,0.7 -0.1,2.7 0.2,0.5 1.4,1.1 -0.1,1.4 -0.7,1.9 v 1.4 l 5.9,7.1 1,0.7 -0.7,2 h 1.5 v 0.9 h -0.8 v 0.9 l 1.2,1.2 2.7,4.9 0.8,2.5 3.9,7 1.3,1.8 0.5,1.5 -1.2,1.4 -0.4,1.9 -0.2,3.7 0.9,1.7 2.1,0.5 2.3,-0.3 1.6,-0.5 0.1,0.6 0.7,1.3 -0.8,0.5 0.8,0.5 -0.8,1 1.9,0.7 0.9,1.2 -0.3,0.7 -1.7,-0.7 1,2.5 3.1,4.5 -0.2,1.6 0.9,2.4 0.6,2.5 h -2.3 l 1.1,2.2 0.7,0.2 0.5,-0.4 0.4,1.3 0.1,1.2 -0.1,1.1 -0.4,1.2 1.1,1.8 2.3,5.7 0.8,1.2 -0.3,1.1 1.5,2.5 3.1,3.2 0.7,1.5 0.3,1.6 -0.5,1.2 -1.2,0.5 v 0.8 l 2,0.3 1.7,0.8 -0.4,1.1 -1.3,0.9 -0.6,1.7 0.1,1.6 -0.6,1.5 -1.5,-0.1 -1.6,-1 -1,-0.9 -1,1.6 -1.4,1.4 -0.6,1.4 1.5,1.3 -0.8,2 h 3.1 l -2.8,2.5 0.1,3.6 1.7,3.7 2.2,3.6 1.2,2.5 0.4,0.4 2.3,1 1.3,1 2.1,0.9 0.7,1.4 0.5,0.5 1.1,0.1 -1.6,1 v 0.9 l 0.7,0.8 0.1,0.7 -0.5,0.7 -1,0.6 1.9,2.9 3.4,2.1 2.4,2.2 -0.8,3.3 -3.9,-1.9 -1.1,1.5 -1.4,0.2 -5,-1.2 -1.1,-1.5 -0.8,-1.6 -1.3,-1.2 v -0.9 l 0.6,-1.8 -0.8,-2.3 -1.6,-1.9 -1.7,-0.7 -4.8,1 -2.3,0.1 -1,-1.6 -0.5,-2.3 -2.5,-5.4 -0.9,-1.4 -1.3,-1.3 -4.8,-3.5 1.6,-1.7 -0.5,-1.6 -4.7,-4.4 -0.6,-0.2 -0.5,1.1 -1.6,1.9 -0.4,-0.7 -0.2,-1.3 0.6,-3.3 -0.2,-2.1 -1,-3 -0.8,-5.1 -1.6,-2.5 -2.5,-1.5 -3.2,-0.7 -5.7,-0.1 -7.1,0.9 -5.1,2.8 0.2,6 -3.7,2.7 -1.5,2 -0.9,3.1 h 1.7 l 1.1,1 0.4,1.7 -0.1,2.1 h -0.8 l -0.6,-2 -0.7,-0.7 -1,-0.2 -0.9,0.8 -0.6,1.3 -0.2,1.2 0.5,0.6 1.9,1.6 -0.6,2.8 -1.5,1.4 -0.9,-3 -1.7,1 -0.6,1.4 -0.1,8.3 0.4,3.2 0.7,2.6 2.1,5.6 -0.5,0.7 0.5,1.3 -1.5,1 -0.5,1.4 0.3,1.7 0.9,1.6 v 1 l -1,-0.1 -0.3,0.4 -0.2,1.6 -1.3,-1.6 -0.4,-2.4 -0.1,-2.6 -0.6,-2 -1.7,-1.4 -3.9,-1.6 -1.3,-1.9 h -0.8 l -1.2,1.2 -1.1,-0.3 -1.1,-1.1 -0.8,-1.2 -1.1,-2.1 0.1,-1.5 0.7,-1.5 0.6,-2 1.9,0.5 0.5,-1.7 -0.5,-2.3 -1.2,-1.4 0.6,-0.7 1.1,-2.1 h -2.4 l 0.3,-1.8 -0.2,-2.2 0.4,-1.6 1.9,-0.2 v -1 l -2.2,-0.8 0.2,-2.4 2,-4.6 -3.4,0.6 -2.1,-3.4 -1.8,-4.4 -2,-2.4 0.1,-2.8 -1.7,-3.6 -7.9,-10.9 -2.4,-1.2 -2.8,2.1 -3,-2.2 -1.2,-1.4 -0.5,-2.2 0.8,-0.7 0.5,-1.2 0.3,-1.4 0.1,-1.6 0.6,-2.8 0.1,-3.8 -0.2,-1 -7.6,-1.7 -4.2,-0.3 -2.1,0.6 -4.2,2.7 -4.3,1.2 -1.3,1.4 -0.6,1.9 -1.1,13.5 -0.6,1.7 -0.1,1.3 0.5,1.6 0.7,1.2 0.3,1.2 -0.7,1.7 1.9,1.9 1.2,0.8 1.6,0.2 v 1 l -1.5,0.1 -1.3,0.6 -0.7,0.9 0.3,1.2 -0.7,1.2 -6,5.6 H 282 l -2,-4 -0.3,-0.3 -3.5,-7.3 -2,0.2 -1.7,0.4 -2.9,1.4 -1.3,-1.4 -2.7,-1.1 -0.7,-1.4 h -0.7 l -1,0.6 -0.6,-1 -0.6,-1.9 -0.9,-1.5 0.4,-1.4 -0.4,-2.5 v -2 l 0.3,-1.3 1.5,-2.3 0.5,-1.3 0.1,-2.3 -0.8,-2.1 -1.7,-1 -0.8,-0.3 0.1,-0.9 -1,-0.1 -0.6,0.4 -0.6,1.6 -0.8,-5 -2.9,-3.7 -3.4,-3.5 -2.3,-4.4 -1,-5.5 -0.3,-5.7 0.8,-5.1 2,-3.9 7.1,-5.8 3.1,-3.3 1.5,-4.6 -0.5,-5.7 -1.1,-3.1 1.8,-0.9 7.5,1.6 4.1,-0.9 3.7,1 2.2,-1.2 4,-5.2 -0.9,-2 0.7,-1.9 3,-3.4 1.8,-1.6 2.4,1.9 2.1,-0.8 1.1,-1.7 -3.3,-4.1 -10.3,-8.2 -3.7,-1.4 -2,0.5 -1.9,-0.3 -0.2,-15.6 -2.3,-7 0.6,-5.7 6.5,-10.7 4,-0.9 0.9,4.1 4.1,1.4 3.5,2.5 7.6,3.6 2,-0.1 3,-3.4 2.1,-0.8 3.9,0.2 0.4,2.1 1.8,0.6 2.1,-0.8 3,-3.4 6.3,-2.5 0.8,-2.2 -0.8,-2 -1.7,-1.9 0.3,-3.8 1.1,-1.8 0.4,-2.3 -0.4,-2.4 0.7,-1.8 8.5,-3.7 2.3,-1.6 1.1,-1.7 0.7,-1.9 -0.1,-1.9 3.3,-7.3 -2.7,-4.8 0.5,-4 0.5,-1.7 0.7,0.7 3.5,1.4 1.1,0.9 1.2,0.6 2,-0.8 8.9,2 12.3,6.6 6.7,2.4 1,1.1 1,0.3 9,8 2.1,3.5 0.6,0.4 2.2,0.6 3.5,3.1 1.6,1.2 1.8,0.3 1.7,-0.4 2.8,-0.9 h 2.6 l 0.8,-0.4 2.3,-3.5 0.2,-0.8 -1.1,-1.6 -1.6,-1.7 -1.3,-0.8 -1.8,-0.6 -2.8,-2.2 -2,-0.2 0.7,-0.7 -3.7,-0.2 2.4,-2 1.1,-0.7 1.5,-0.3 1.4,-0.6 2.5,-2.6 1.1,-0.7 3,0.2 5.5,2.4 2.3,-0.7 3.3,1.6 z"
         id="GRC2885"
         name="Peloponnisos" />
      <path
         d="m 336.4,528.6 -0.5,1.7 -0.5,4 2.7,4.8 -3.3,7.3 0.1,1.9 -0.7,1.9 -1.1,1.7 -2.3,1.6 -8.5,3.7 -0.7,1.8 0.4,2.4 -0.4,2.3 -1.1,1.8 -0.3,3.8 1.7,1.9 0.8,2 -0.8,2.2 -6.3,2.5 -3,3.4 -2.1,0.8 -1.8,-0.6 -0.4,-2.1 -3.9,-0.2 -2.1,0.8 -3,3.4 -2,0.1 -7.6,-3.6 -3.5,-2.5 -4.1,-1.4 -0.9,-4.1 -4,0.9 -6.5,10.7 -0.6,5.7 2.3,7 0.2,15.6 1.9,0.3 2,-0.5 3.7,1.4 10.3,8.2 3.3,4.1 -1.1,1.7 -2.1,0.8 -2.4,-1.9 -1.8,1.6 -3,3.4 -0.7,1.9 0.9,2 -4,5.2 -2.2,1.2 -3.7,-1 -4.1,0.9 -7.5,-1.6 -1.8,0.9 -0.8,-2.4 -7.6,-14.7 -4.3,-6.6 -2.1,-2.2 -9.8,-7 -2.3,-1.2 -1.2,-1.3 -2.2,-2.9 -1.2,-1 -6.6,-2 -2.2,0.6 -0.6,3.9 h -0.7 l -0.2,-1.4 v -1.4 l -0.3,-1.2 -1,-1 1.4,-2.9 0.4,-2.3 -0.4,-2.4 -1.8,-6.5 -1.2,-1.9 -1.6,-1.2 -4.9,-2.6 -11.8,-3.6 -1.1,-0.9 -0.6,-1.7 0.5,-2.2 -0.6,-1 3.1,-9.8 h 0.7 l 2.7,2.4 4.9,-2.4 5,-4.3 2.9,-3.5 1.6,0.5 1.3,-0.8 1.3,-1.5 1.2,-1.1 v -1.1 l -0.8,-0.9 -1.1,0.5 -1.1,0.7 -1.7,1.6 5.1,-7.8 0.2,-0.9 4.1,-6.4 0.5,-1.5 0.2,-1.8 0.2,-8.6 -0.1,-2.4 1.2,1.4 1.5,2.6 1.1,1 -0.2,-3.2 1.6,0.9 2,0.2 2.4,0.1 1.6,0.6 5.6,4.3 8.9,2 2.2,-0.4 2.3,-1.1 3.6,-2.5 3,-3.7 4.5,-9.2 2.6,-3.8 8.6,-5.4 1,-1.1 7.4,1.6 2.5,-0.1 1,-0.2 1.1,-0.6 1.1,0.9 1.4,1 1.6,0.7 1.7,0.2 1.4,0.5 0.8,1.3 0.4,1.7 0.8,1.5 1.3,1.1 3.3,1.6 1.2,0.2 0.9,-0.1 1.3,-0.7 h 0.6 l 1.7,1.6 0.9,0.3 0.7,0.8 1.2,3.6 0.8,1.5 1,0.5 4.1,1.4 1.4,1.7 0.9,0.3 h 3.5 l 4.8,1.2 1.4,0.8 2.1,-1 1.7,1.2 z m -57,-32.3 -0.6,-1.1 -0.6,-0.5 -1.1,0.4 -5.5,4.7 -0.8,1.6 -0.4,2.7 -1,0.8 -2.2,-1.4 -3,-2.9 h -6.6 l -1.8,0.5 -1.6,0.9 -1.6,0.5 -1.5,-0.9 -7.3,5.3 -1.3,2.6 h -0.7 l -1,-0.9 -1.6,-0.3 -2.1,-0.2 -0.7,-1 -4.6,-2.5 1.9,-0.5 1.8,1 1.6,1.5 1.6,1 v -1.1 l -0.8,-1.1 0.1,-0.6 0.7,-1.1 -1.6,-1 v -1.1 l 1.6,-1 h -2.2 l 0.6,-1.9 -1,0.5 -0.9,0.2 -0.9,-0.1 -0.9,-0.6 -0.7,0.5 -1.6,0.5 0.7,-2.8 -1.4,-1.5 -2.3,-0.6 -2.1,-0.1 -0.8,-1.3 -1.1,-8.6 -2.4,-2.8 -1.3,-1 -0.6,-0.3 -1.5,0.3 0.4,1.1 4.6,7.7 h -1.6 l 0.8,1 -0.4,1.5 -0.2,1.6 -0.5,1.3 -0.8,0.5 -1.1,0.3 -2.4,1.2 -0.8,0.6 0.3,0.6 0.6,0.3 -0.9,1 -1.5,-0.9 -0.9,0.4 -0.4,0.9 0.7,1 -0.8,1.1 -1.7,1.5 -1.2,0.8 -0.8,0.2 -2.2,-0.1 -0.9,-0.6 -0.9,-0.8 -0.8,-0.2 -1,1.6 1.3,0.9 -1.1,0.7 -0.9,0.8 v 1.6 l -2.2,-0.2 -0.7,-1.5 -0.4,-1.8 -0.6,-1.4 -1.3,-0.5 -3.5,-0.1 -1.4,-0.4 1.3,-0.6 1,-0.8 0.4,-1 -0.3,-1.6 -1.1,0.6 0.5,-1.8 1.4,0.8 1.3,-0.8 1,-1.3 0.7,-1.5 -2,-1.6 -0.9,0.1 -0.9,1.5 -1.3,-0.6 -0.9,-1 -0.6,-1.5 -0.3,-1.8 0.5,-0.4 0.2,-0.6 1.1,1.4 1.3,0.7 1.1,-0.4 0.4,-1.7 -1.5,1 0.5,-1.9 -1.1,-2.6 0.6,-1.4 v -1 h -1.1 l -2,-0.9 1.5,-0.9 0.8,-0.1 -1.6,-1.1 1.1,-2.3 0.3,-1.2 -0.2,-0.8 -1,-0.7 -0.9,0.6 -0.9,1 -1,0.5 -0.4,0.5 -1.3,1 -1.2,0.7 -0.6,-0.7 -0.3,-1.3 -1,-2.1 -0.3,-1.5 0.9,-5.9 v -3.1 l -2.4,-2.6 -1.7,-5.5 -1,-1.2 h -4.4 l -1.6,-0.6 -1.3,-1.4 -0.8,-1.7 -2.7,-11.7 -1.1,-2.3 -1.6,-1.2 -1.6,0.6 -1.7,1.7 -1.3,2 -0.8,1.6 -0.9,-1.6 -0.6,0.3 -0.7,0.7 -0.9,-0.2 -1.2,1 -0.5,-0.5 -0.2,-1.4 -0.4,-1.1 -3.9,-3.1 v -0.9 l 0.9,-1.9 0.5,-2.6 0.9,-2.4 2,-1 2.4,0.1 1.3,-0.1 0.6,-0.5 -0.4,-0.9 -0.9,-0.8 -0.9,-0.6 -2.4,-1.2 -1,-2.2 -0.2,-2.6 0.4,-2.2 1.4,-2.7 0.6,1.1 0.7,2.4 1.8,1.2 2.2,0.7 2.1,-1.1 1.6,-2.1 1.1,-2.4 h 0.8 l 0.5,1.9 -0.5,1 0.6,0.6 v 0.5 l -0.6,0.9 h 2.3 l 1.9,-0.2 1.3,-1.2 0.6,-2.6 h 0.7 l 1.1,1.5 h 1.2 l 1.4,-0.4 1.7,-0.1 1.6,0.6 1,0.7 1.3,0.6 2,0.2 0.3,0.9 -0.4,2.1 -0.1,2 0.9,0.9 1.6,0.4 1.5,1 2.7,2.6 0.2,-1.3 0.2,-0.8 1.2,-1 v -0.9 l -0.9,-1.8 1.2,-0.9 h 2.1 l 1.8,1.2 2.7,3.1 v 0.4 l 1.4,0.7 0.5,-0.4 0.4,-1.4 -0.9,-0.8 -0.4,-0.7 -0.3,-2.1 h -0.9 l -0.5,-0.4 -1.4,-2.5 -0.2,-1.6 0.8,-1.8 -0.6,-1.2 0.4,-1.3 0.8,-0.8 0.9,0.4 -0.1,-3.4 -2.7,-3.8 -5.7,-5.7 -0.8,0.9 -0.4,1 v 1 l 0.5,1 -1.5,-0.6 -0.6,0.2 -0.2,-1.7 1.2,-3.8 1.9,-1.7 2.1,-0.8 14.1,-0.3 2,-0.5 4.4,-2.1 6,-5 2.5,-0.8 0.1,4.8 2.9,4 0.9,2.1 -0.7,1.9 v 2 l -2.9,5.5 0.5,2 11.3,6.9 0.8,2.5 -0.7,3.9 0.5,2 1.8,1.5 1.9,0.3 1.8,1.5 6.1,1.3 3.7,1.8 0.1,2 -6.5,3.3 -1.9,1.7 -0.8,2.2 0.1,2 1.7,4.2 1.7,1.9 6.1,4.1 3.6,1.7 4,0.3 6.1,-1 1.3,2.1 -0.4,2 2.5,-0.4 4.1,-3.3 -0.1,-4 0.7,-1.9 5.9,0.6 4.3,-2.1 1.9,-1.6 4.7,-2.1 0.2,1.3 4.4,2.6 v 2 l -1.8,3.7 0.5,4 -1.4,3.7 0.4,4.4 -1.5,1.8 0.1,1.9 3.3,3.7 -1.8,4.1 0.4,4.4 -1.1,1.8 -2.2,1.2 -4.1,0.9 -4.6,4 -2.4,4.3 0.4,2.8 z"
         id="GRC2886"
         name="Dytiki Ellada" />
      <path
         d="m 534.3,396.7 1.1,0.8 v 1.3 l -1.2,0.6 -1.4,-0.3 1.1,-1.3 -0.9,-1 -0.4,-2.3 0.5,-1 0.6,-0.4 1,-0.1 -0.3,1 0.4,0.7 z m -67.7,-14.7 -0.9,2.8 -1.8,-1.4 -1.6,1.6 -1.6,3.8 -0.9,-0.2 -0.9,-1.3 -1,-0.6 -1.2,-0.3 -1.2,-0.2 -1.2,0.1 -1,0.4 0.4,-2.5 1.4,-1 1.4,-0.3 0.7,-0.5 0.5,-1.6 1.2,-1.7 1.5,-1.4 1.4,-0.8 1.8,1.1 1.9,1.7 z m 10,-4.4 1.4,0.2 2.7,2.9 3.1,2.6 3.5,2.1 3.8,1.3 -0.4,2.2 2.1,0.3 h 3 l 2.3,0.7 v 0.9 l -3.7,4 -2.1,1.5 -2.8,0.4 -1.1,-0.3 -1.6,-1.4 -3,-0.5 -0.9,-0.7 0.1,-1 1.2,-1 v -1 l -1.2,-0.7 -3.5,-3.5 -0.7,-1.3 -0.5,-1.9 -3.4,-5.6 1.6,-0.9 z m 33.1,6.9 -3.5,2.5 -3.5,-0.3 1.5,-2 1.6,-1.3 1.3,-1.6 1.9,-5.4 5.7,-9.1 1.9,-1.4 -0.4,1.5 -0.4,0.6 2.5,0.4 -0.6,3.1 -1.9,3.2 -1.5,1.1 -1.7,4.5 z m 19.5,-27.9 0.1,1.1 1.3,-1 1,0.5 0.5,0.5 -0.1,2.3 -1.3,3.7 -2.2,1.1 -1,-1.2 0.1,-1 0.5,-0.4 -0.4,-0.6 -1.1,-0.6 -0.5,-1.1 0.4,-1.6 0.7,-1.5 0.8,-1.4 1,-0.2 z m 29.4,0 -1,3.3 -1,-0.6 0.6,-3.2 0.6,-1.8 0.9,0.7 z m -17.2,-4.4 -2.7,3.1 v -0.6 l -1.2,-0.7 0.2,-0.9 0.9,-1.2 0.3,-2.2 0.3,-0.8 1.1,-1.2 0.6,-1.9 0.4,0.5 0.8,4.4 z m -165.3,-80.8 1.5,5.5 0.8,1.8 1.2,1.6 4.3,3.7 2.5,1.4 1.6,1.6 2.8,3.8 1.1,1.9 1,2.5 0.7,2.9 0.2,3.2 0.5,2.3 3.4,8.4 2.7,8.6 1.6,2.8 1.5,1.6 5.8,3.8 5.8,2.4 4.3,3.4 0.9,1 1.3,4.4 1.3,1.8 9.7,11 1.4,3 5.4,5.2 2.3,7.9 5.7,11.1 0.1,1.9 -1.2,0.7 -3.6,3.4 -2.2,0.7 -4.3,0.7 -2.1,0.6 -1.7,0.8 1.6,1 0.7,0.1 v 0.9 l -1,0.3 -0.8,0.5 -1.2,1.2 -1.3,-0.5 -2.5,0.2 -2.6,0.7 -1.7,1.1 -1.8,0.8 -2.6,-0.1 -4.5,-1.2 1,-2.1 1.3,-1.8 -0.6,-2 1.5,-1.3 3.7,-1.8 v 1.9 l -1.5,6.1 8,-4.4 1.2,-1.7 -0.7,-1.3 0.6,-0.5 1.1,0.1 0.6,0.3 0.3,0.7 0.8,-0.9 0.8,-1.6 0.5,-1.6 -0.6,-1.6 -2.9,-5 -1.2,-1.4 0.5,-2.4 -1.3,-2.6 -2,-2.3 -1.8,-1.8 -2.2,-1.5 -1.9,-0.7 -8.8,-0.8 0.1,-1.2 -2,-3.9 -0.6,-0.7 -0.8,-0.1 -3.1,0.1 -2.5,-0.7 -0.6,0.2 0.8,1.4 v 1 l -1.2,1.2 -0.4,1.7 0.4,1.8 1.2,1.3 -2.7,0.6 -4.4,0.5 -4.2,1 -1.9,2.4 -0.2,5.6 0.2,1.8 3.2,9 h 0.6 l 0.9,-1.5 1.5,-1.4 -0.5,-1.6 0.6,-0.1 0.9,1 0.6,1.7 0.7,-1 1.1,2.3 0.4,2.9 0.6,2.7 1.8,2 v -0.7 l 0.8,-0.3 -0.8,-2 2.8,1.9 1.4,2.4 1,2.6 1.8,2.1 -0.7,1.8 0.7,1.2 -3.6,2.1 -0.8,1.4 0.5,2.3 5.8,-3.5 3.1,-1 3.4,-0.3 v 0.9 l -0.9,1.1 -3.7,1.9 -1,1 -0.5,1.1 -0.8,2.9 -0.5,1 -1.2,1.5 -3.4,-1.5 -4.4,2 -6.5,0.5 -3.4,-3.4 -1.9,-0.7 -4.1,0.5 -6.1,-1.9 -2,0.1 -7.1,-4.8 -2.3,-0.8 -8.6,0.9 -4.3,-0.3 -1.8,-1.1 -0.9,-2.1 -0.4,-6.5 0.6,-3.5 -7.4,0.8 -1.7,-1.5 -0.9,-6.5 -1.7,-1.5 -4,-2.6 -7.9,-3 -5.5,-3.2 -10,11.5 -3.4,8.1 -2.3,2 -4.2,0.9 -2.2,1.3 -3,3.5 -4.8,2.4 -4.2,0.9 -1.9,-0.3 -0.5,-2.1 0.7,-1.9 -0.5,-4 -1.6,-2.3 -3.8,-1.4 -3.9,-3 -2,0.1 -6.4,4.5 -2.1,0.9 -2,-0.3 -1.7,-1.5 -0.9,-2.1 1.1,-3.8 -0.9,-2.1 -3.6,-2.2 -0.6,-6.1 -0.9,-2.1 -1.8,-1.5 -9.6,2.5 -2.3,1.6 -0.7,1.9 -1.9,1.7 -3.5,-2.9 -2.1,0.4 -4.1,3 -5.3,5.5 -1.5,-0.6 -2.9,-4.4 -0.4,-2.5 5.9,-11.4 -1.7,-4.2 -2.7,-3.2 -2.1,0.4 -5.9,-0.9 -3.9,-3 -1.6,-5 -5.4,-4.4 -0.8,-2.5 0.4,-2.3 -0.8,-2.5 -1.6,-2.3 0.3,-1.9 1.4,-1.8 -0.9,-4.1 0.6,-3.9 -1.2,-2.2 -1.9,-0.7 -1.7,-2.3 -0.2,-4 -1.3,-4.6 1.5,-1.8 2.3,-1.2 4.4,0.2 1.7,1.5 2.1,-0.1 -0.2,-4 -1.8,-8.7 0.7,-1.9 1.1,-2.2 2.3,-1.3 1.1,-1.8 2.1,-0.9 3.1,0.9 1.4,1.4 2.1,-0.1 4.7,-1.7 2.2,-1.2 2.6,-3.7 2.3,-1.6 4.3,-1.7 16.7,2.2 11.3,2.9 4,0.3 8.4,-1.9 5.9,0.9 1.5,-1.3 0.3,-2 -0.9,-4.1 0.3,-2 -0.8,-2.2 -3.7,-2.2 2.3,-1.6 5.3,-5.2 4.5,-2.5 2.3,-4 1.1,-3.9 5.4,-5.6 3.4,-5.5 1,-3.8 2.6,-3.3 0.9,2.2 1.1,-1.8 2.3,-1.3 5.9,1.4 -0.4,2 -1.1,1.8 0.4,2.1 -0.4,2.3 0.9,2.2 1.9,0.7 2.4,-2 2.2,-3.7 2,-1.7 4.7,-1.6 3.7,2.2 0.9,2.2 -0.3,6.4 1.3,4.2 3.4,3.8 7.6,5.3 2.5,4.5 3.4,3.4 4.2,1.5 9,-2.5 2,0.3 1.7,1.6 5.9,-1 z"
         id="GRC2900"
         name="Thessalia" />
      <path
         d="m 216.3,290.6 -3.1,-0.9 -2.1,0.9 -1.1,1.8 -2.3,1.3 -1.1,2.2 -0.7,1.9 1.8,8.7 0.2,4 -2.1,0.1 -1.7,-1.5 -4.4,-0.2 -2.3,1.2 -1.5,1.8 1.3,4.6 0.2,4 1.7,2.3 1.9,0.7 1.2,2.2 -0.6,3.9 0.9,4.1 -1.4,1.8 -0.3,1.9 1.6,2.3 0.8,2.5 -0.4,2.3 0.8,2.5 5.4,4.4 1.6,5 3.9,3 5.9,0.9 2.1,-0.4 2.7,3.2 1.7,4.2 -5.9,11.4 0.4,2.5 2.9,4.4 -2.5,0.8 -6,5 -4.4,2.1 -2,0.5 -14.1,0.3 -2.1,0.8 -1.9,1.7 -1.2,3.8 0.2,1.7 -0.6,0.2 -2,2.3 2.4,1.8 -6.2,-0.9 v -0.9 l -1.4,-0.4 -1.3,-0.9 -1.6,-1.3 -1.3,0.8 -1.1,-0.7 -0.7,-1.3 -0.3,-1.3 0.5,-0.6 1,-0.3 v -1 h -0.8 l -1.1,0.7 -1.3,0.1 -1.2,-0.6 -0.9,-1.3 h -0.8 l -0.7,1.5 -2,1.1 -0.4,0.9 0.5,1.5 1.2,0.3 0.5,0.7 -4.7,-0.1 1.7,-0.8 -0.2,-1 v -1.4 l -0.3,-1 -1,0.4 v -2.1 l -1,-0.1 -0.6,0.2 0.7,-2.2 -0.5,-2.4 -1.3,-0.9 -1.2,1.5 -0.7,-1 -0.5,1 -0.6,0.8 -0.9,0.6 -1.2,0.6 v 1 l 1.7,0.4 -0.5,1.2 v 1.7 l -0.4,1.7 -0.8,1.1 -1.7,1.3 -0.5,1.6 -1.6,-1.1 0.2,2.1 1.4,-0.1 5.2,4.4 2.2,1.1 0.7,1 0.3,1 -0.4,0.5 -1,-0.3 -2,-1.2 -3.3,-1.1 -0.7,0.1 -1,0.5 -0.1,0.6 -1.1,1.7 -1.3,1.2 -0.7,-1.1 -0.3,-1.3 -1.6,-1.8 -0.5,-1.7 -0.6,-1.1 0.2,-1 1.1,-1 0.2,-0.5 -1.1,-4.8 -2.2,-3.5 -3,-2.5 -3.6,-2.1 -3.6,-2.8 -8.8,-11.2 -3.3,-2.3 -1.1,-1.3 0.4,-1.3 -0.6,-1.3 -0.2,-1.7 0.1,-1.7 0.7,-1.2 v -1.1 l -1.3,0.6 -1.2,0.2 -0.8,-0.5 -0.5,-1.3 -1.7,0.9 h -1.6 l -1.5,-0.8 -1.4,-1.2 -3.1,1.3 -4.6,-2.3 -3.6,-4.3 -0.3,-4.6 -1.5,-1.4 -0.8,-1.9 -1.3,-1.4 -2.5,-0.3 v -1 h 0.7 V 348 l -0.9,-1.2 -1.2,-2.3 -0.9,-0.6 1.9,-0.6 h 2.3 l 1.6,-0.4 -0.4,-2 -1.1,-1.2 -4.3,-2.9 v -0.9 l 1.9,0.1 1.4,0.4 1.1,-0.1 1,-1.4 v -1 l -1.2,-0.8 -1.9,-1 h -1.6 v 1.8 l -1,-0.9 -1.3,-0.8 -1.2,-0.2 1.2,-1.2 -2.1,-0.5 -2,-0.2 -1.8,0.2 -1.8,0.5 0.9,-1.1 0.5,-1.4 0.2,-1.6 -0.1,-1.8 0.8,0.9 H 89 l 0.8,-0.8 0.7,-1 v -3.1 l 1.6,-0.9 -0.7,-3 -1.9,-1.3 -1.9,-0.6 -0.9,-0.7 -0.4,-0.6 -1.8,-1.5 -1.8,-0.7 -1,-0.7 -0.8,-1 -5,-1.2 -2.6,-1 -1.3,-0.8 h -1.1 l 1.8,-1.2 3.8,1.3 4.4,1.5 5.2,2.7 3.2,2.9 2.3,1.1 1.8,-0.5 0.4,-0.8 0.1,-2.2 0.9,-0.9 0.9,-0.4 h 0.9 l 1,0.4 1,0.6 0.3,-3.2 1.7,-1.7 2.1,-1.2 1.6,-1.9 0.3,-1.6 -0.3,-0.8 -0.6,-0.6 -0.7,-1.7 -1.1,-1.6 0.9,-2.2 0.1,-0.7 -0.3,-1.2 -0.7,-0.6 -0.3,-0.6 0.8,-1.1 1,-0.4 1.1,0.2 4.3,1.7 2,1.2 1.9,0.2 2,-2.1 0.9,-2.9 -0.5,-2.5 -5.1,-8.7 -2.7,-2.6 -0.6,-0.9 -1.7,-8.9 -0.6,-1.2 1.4,-0.4 5.6,-0.2 1.9,-0.4 0.5,-2.6 0.9,-2.6 1.3,-2.4 1.5,-1.7 2.1,-1 3.8,0.4 1.7,-1 2.1,-0.5 6,0.9 2.8,-0.3 7,-3.4 0.8,-0.5 0.5,-1.1 1.7,-4.8 0.1,-0.6 -0.5,-2.8 v -0.7 l -0.4,-1.6 0.1,-1 0.5,-0.8 1.6,-0.5 0.7,-0.5 1.2,-3.5 v -3 l -0.2,-3 0.5,-3.3 0.9,-1.5 1.2,-0.8 1.3,-0.7 0.9,-0.8 0.3,-0.8 0.4,0.5 1.3,1.1 2.1,-0.1 2.2,-1.3 1.5,-1.8 4.2,-1 1.7,2.3 2.2,6.8 4.8,5.9 3,6.6 1.5,6.2 -0.4,2.4 -2.8,5.2 1.8,1.5 1.4,6.2 3.1,4.1 4.4,-2.2 1.7,1.5 -0.2,4.4 -3,6 3.5,3.3 1.5,8.3 2.2,4.3 1.9,0.7 4.3,-1.7 6.3,-1.5 4,0.2 7.5,4.4 z"
         id="GRC2949"
         name="Ipeiros" />
      <path
         d="m 782.7,604.1 -10,9 -1.9,0.8 -9.7,1.4 -2.2,0.9 -1.2,0.9 -2.2,2.2 -1.2,0.8 -1.1,0.4 -3.1,-0.4 -4.4,1.2 -1.7,-0.4 -0.5,-2.7 0.9,-1.9 3.7,-3.8 0.8,-1.6 0.8,-2 1.7,-2.3 2.1,-2 1.6,-1 2.8,-0.2 6.4,0.9 2.4,-0.7 2.3,0.8 3.3,-1.1 3.1,-1.7 2.9,-3.4 3.7,-1.1 5.5,-0.4 -2,3.8 z m 71.6,-17.5 1.2,1.3 0.5,-1.5 -0.7,-1.3 -1.1,-1.3 -1,-1.7 1.8,0.6 h 1.4 l 1.1,-0.6 1.1,-1.1 0.1,1.8 3,0.9 5.3,0.4 -3.2,1.5 -0.6,0.4 -0.2,1.2 1.1,2.1 0.6,1.6 1.3,-1 0.7,0.7 0.2,1.5 -0.7,1.7 -2.7,-0.9 -4.1,0.9 -10.2,4.1 -1,0.6 -1.3,1.2 -0.6,1 -0.6,1.3 -1.1,0.6 -0.9,0.2 -7.2,-0.2 -1.1,-0.3 -0.4,-0.9 -0.3,-1.1 -0.5,-1.1 -1.8,-3 -1.1,-1 -2.7,-0.7 -1.2,-1.4 -0.9,-0.3 -1,0.2 -1.8,0.6 -3,0.4 -1.8,0.8 -1.4,1.3 -0.6,1.7 H 816 v -1.1 h -0.7 l -1.2,1.3 -1,-1.4 -0.7,-2.4 -0.2,-1.8 -0.1,-3.5 0.4,-1.6 1.2,-1.3 2,-0.6 2,-0.3 1.5,-0.7 0.7,-1.8 0.9,-1.1 12.9,-3 3.8,-0.1 4.1,0.8 1.5,0.9 2.9,2.5 4,1.1 z m -74.6,-105.5 -0.3,0.3 -0.8,-0.3 -0.5,-0.5 v -0.7 l -0.4,-1.4 0.5,-0.5 1,1.2 0.6,1.2 z m -9.1,-5.8 1,-0.1 1.1,0.2 1.2,1 2.5,0.9 0.5,-0.1 0.2,1.1 -0.8,0.4 -1.1,1.2 -1.2,-0.6 -2.7,-0.8 -1.1,-0.6 h -0.8 l -0.3,-1 -1.6,-2.3 0.1,-0.5 2.1,0.2 0.4,0.2 z m -77.6,0.2 -0.6,0.5 -1.2,-0.2 -0.7,0.1 -0.8,-0.4 0.2,-0.5 1.4,-2.4 1.1,0.1 0.6,0.9 -0.2,1.3 z m 61.2,-7.3 4.7,5.8 0.8,-1.8 0.7,-0.1 v -0.9 l 1,-0.7 1.5,0.4 1.2,1.2 1,1.9 -1.4,1.8 -0.2,2.9 -0.5,2.5 -2.6,0.8 0.9,1.3 1.5,0.6 -0.7,0.9 2,0.1 v 0.9 l -1.3,2.1 -0.4,2.2 v 1.8 l 1.2,10.8 1.5,5.9 -2.9,0.4 -2.7,2.2 -1.3,3.2 1.1,3.5 v 2.2 l -2.7,1.4 -5.4,1.8 -0.9,1.5 -0.7,3.2 -0.7,1.1 -1.1,0.4 -2.3,-1 -1.6,-0.3 -1.2,-0.9 -2.5,-3.3 -0.9,-0.1 -1.1,-1.1 -1.1,-1.7 -0.5,-1.7 -2.3,0.9 v -3.9 l -1.9,1.2 -0.8,-0.9 0.2,-2 1,-2.2 1.1,-1 1.4,-0.5 2.1,-0.5 0.6,-0.4 1.3,-1.5 2.8,0.2 0.6,-0.2 0.7,-1.7 0.1,-1.8 0.5,-1.5 1.8,-0.9 -0.6,-1.6 0.3,-3.5 -0.6,-1.3 -0.7,0.4 -0.5,-1.1 -0.7,-0.8 -0.8,-0.6 -1,-0.4 0.6,-1.3 -0.1,-2 -0.6,-2 -0.7,-1.6 -1.4,-1.4 -1.2,-0.5 -1.5,-0.3 -2,-0.8 -1.6,-1.3 -3.6,-4.6 -1,-1.9 -0.2,-2.3 0.6,-1.6 0.8,-1.5 0.4,-2.1 16.5,-3.4 2.3,0.3 5.4,1.7 z m -53.8,-4.1 0.7,1.1 3.1,2.9 v 0.7 l -0.9,0.3 -0.8,5.1 -0.3,0.9 -1.5,-0.3 -1.2,-0.5 -1,-0.1 -1.3,0.9 -0.3,-1.3 0.5,-1.8 -0.2,-0.9 -0.4,-0.7 -1.3,-1.3 -0.6,-1 -1.3,-1.1 -0.6,-0.8 0.3,-1 0.8,-0.4 0.7,0.3 0.8,1.1 0.7,-1.1 0.9,-0.7 0.8,-0.1 0.8,0.9 h 0.7 v -1.1 z m 92.7,-102.8 -3.6,5.6 0.3,0.8 4.7,4.6 3.8,1.6 1.4,1.3 3.9,5.9 1.5,1.3 2.4,1.4 -1.5,1 0.5,1.3 0.8,1.1 1,1.1 0.1,1.5 0.3,0.8 0.7,0.4 1.3,-0.2 -0.2,2.9 1.5,3.3 2.1,2.7 1.6,1.1 v 1.3 l -0.3,2.5 -1.4,1.6 -3.3,-1.4 -1.9,1 -1.3,-0.7 -1.1,-1.3 -1.2,-1.1 0.8,-0.9 -1,-0.8 -0.1,-0.7 0.4,-2 0.7,-1.6 v -0.9 l -1.3,-1.1 -1,-2.6 -1.9,-0.7 -3.8,0.4 -2.1,1.1 1.8,2.5 4.4,3.4 4.2,6.1 2,1.7 v 1.1 l -0.2,0.6 0.2,1.4 -2.9,1.3 -3.6,0.9 -7.3,0.8 -1.9,-0.3 -3.6,-1.4 -4.1,-0.6 -1.5,-0.7 -2.8,-2 -2.8,-1.3 -6.6,-1.5 -5.8,-0.2 -1.2,-0.4 -1,-1 -3.5,-5 -1.2,-1.2 -1.9,-0.4 v -0.9 l 0.7,-0.2 0.9,-0.8 0.8,-0.3 1.4,0.3 4.4,-1 0.5,-0.5 1.8,-3 1.2,-0.9 1.2,-0.2 h 1.3 l 1.3,-0.4 3,-3 3.4,-2.5 0.1,-0.4 1.2,-0.7 -0.4,-1.4 -1.1,-1.4 -1.2,-0.6 -3.6,-0.9 -1.4,-0.1 -2.4,0.3 -1.9,0.5 -1.6,1 -1.4,1.7 -1.7,4 h -0.3 l -5.1,7.3 -1.7,1.5 -2.1,0.7 -2.3,-0.4 -9.6,-3.5 -1.6,-1 -1.6,-1.3 -1.1,-0.6 -1.5,-0.2 -2,-0.9 -3.9,-3.9 -2.2,-1.1 v -1.1 l 1.3,-0.5 0.4,-1.3 0.2,-1.7 0.4,-1.5 -0.5,-0.1 -1,-0.9 0.9,-0.6 0.4,-0.6 0.2,-0.9 v -1.4 l 0.4,-1 0.9,-0.6 1.8,-0.8 3.2,-3 0.7,-1.1 h 0.8 l 1.3,3 3.7,-0.3 4.2,-1.2 3.1,0.6 1.2,-2.1 0.3,-0.9 0.6,1.3 0.2,0.7 h 0.7 l 1.4,-2 2.4,-1.1 4.8,-0.8 2.9,-1.1 1.1,-1.7 -0.1,-2.6 -0.9,-3.7 20.3,-0.6 2.1,0.6 -0.8,3.2 2.1,1.4 3,0.8 1.9,1.6 z M 633.1,340 h -0.7 l -1.3,-7 0.3,-3.3 2.4,-1.9 -0.3,-1.1 0.2,-0.6 1.8,-0.2 3.9,2.7 -0.8,3.6 z m 50.2,-81.4 v 0.9 l 0.5,-0.1 0.5,2 0.2,1.5 0.2,0.7 -2.6,1.5 -2.8,2.1 -1.8,2.9 0.4,3.6 h -1.6 l -1.2,0.4 -1,0.6 -0.8,1 1.5,0.9 0.8,0.1 -1.7,1 -1.3,1.3 -0.2,1.4 1.7,1.3 -1.4,1.6 0.6,1.6 1.4,1.5 0.9,1.3 0.1,1.1 -0.6,0.1 -1,0.9 -0.3,2.5 -0.4,0.8 -1.9,-1.3 -3.2,-1 -1,-0.7 -0.2,-1.3 v -1.4 l -0.3,-0.6 -2,-0.8 -1.8,-2.9 -2,-0.3 2.6,-1.9 1.4,-1.4 0.6,-1.3 -0.5,-2.1 -1.3,-1.5 -1.5,-0.7 -1.3,-0.2 -4.7,4 1.9,0.1 1.2,0.9 -2,0.4 -1.5,1.4 -1,2 -0.9,2.2 1.2,-0.6 0.4,-0.4 1.2,1.6 1.4,2.4 0.8,2.1 -0.8,1 -2.4,-0.2 -2,-0.4 -3.6,-1.4 2.5,-4.1 0.5,-0.5 -0.6,-1.6 -1.2,0.5 -1.3,1.4 -0.7,1.3 h -0.8 l -0.1,-1.2 -0.7,-1.8 -6.5,2 -1.2,1 h -0.7 l 0.8,-1.7 0.5,-0.7 1,-0.6 -1.5,-0.9 -0.8,-0.2 0.1,-1.3 -0.1,-0.7 1.4,-1 v -1 h -0.7 v -1 l 0.5,-0.1 0.2,-0.9 1,-2.2 -0.5,-1.2 -1.1,-1.1 -0.8,-1.6 -0.1,-2.1 0.1,-1.9 -0.2,-1.4 -1.4,-0.6 v -1 l 4,-0.2 7.2,-1.8 1.1,0.3 1.6,1.7 1.7,-0.3 6,-1.7 2.5,0.9 1.6,1.7 1.2,2.2 1.7,2.2 -0.2,1.2 2.5,-1 3,-1.8 1.6,-1.4 v -1.3 l 2.4,-3.5 1.4,-1.2 0.5,0.1 3,-0.1 1,-0.3 3.1,-1.7 -0.9,1.5 z"
         id="GRC2988"
         name="Voreio Aigaio" />
      <path
         d="m 552.7,554.1 -1.4,0.9 -1.2,-0.4 -1.7,0.5 -1.2,-0.7 -0.1,-0.8 1.7,-3.5 1.3,-1 1,0.1 1.4,1.4 0.8,1.6 z m 10.7,-123.1 -0.1,1 -0.4,-0.2 -1.2,1.1 -1.7,-0.9 0.2,-1 0.9,-1.3 0.4,-0.1 z m 22.7,-6.5 0.5,1.5 0.6,0.6 1.9,1 4.7,3.3 2.3,2.1 2,3.3 0.4,1.7 -0.1,1.2 h -0.9 l -0.6,0.3 -1.4,1.8 -0.8,0.2 -0.9,-1.1 H 593 l -1.1,0.9 -1.3,-0.5 -1.1,-1.4 -0.4,-1.4 -2.1,0.7 -1.4,1.4 -0.3,2.2 -3.9,-4.8 4.7,-2 -1.2,-4.2 -0.7,-1 -1.3,1.3 h -0.6 l -0.4,-1.7 -1,-0.5 -1.2,0.3 -1.4,0.8 v -1.6 l -2.5,-1.1 -0.5,-2.2 -0.8,1 -0.9,-1.3 -1,-0.7 -1,0.1 -1,0.9 -0.2,-1.5 0.5,-1.3 0.8,-0.9 0.9,-0.3 0.9,-0.8 v -1.6 l -0.6,-2.6 0.1,-2.1 0.4,-1.9 1.1,-1.3 2.3,-0.6 7.8,5.3 1.5,1.7 0.2,1.4 -0.4,3.5 z m -127.5,-1.8 0.9,1.8 0.1,1.6 1.3,2.7 2,2.6 5,2.1 4.9,4.3 2.9,0.7 v 1 l -0.3,1.1 0.3,0.6 h 0.7 l 0.8,-0.8 1.4,1.5 3.2,0.6 1.6,0.9 1.2,-0.8 1.2,0.8 2.1,-1.5 2.3,0.5 1.8,1.8 0.7,2.6 1,1.8 2.2,1.6 4.5,2.1 5,1.6 5.4,0.4 2.5,0.6 2.3,0.9 2.1,-0.1 2,-2.4 2.4,1.2 h 2.6 l 2.6,-0.3 2.4,0.1 7.1,2.6 2.2,1.3 -1.2,0.4 -1.2,0.9 -0.9,1.2 -0.6,1.5 v 2.4 l 0.6,1.4 10.1,8.5 1.7,2.5 -2.8,2.2 -2.1,4.7 -0.4,5 2.2,3 v 0.9 l -2.1,0.7 0.3,1.2 2.6,3.1 0.2,1.7 v 2.3 l 0.2,1.9 2.7,3.4 0.2,1.4 1.4,1.5 -0.1,2.6 0.1,1.3 0.6,0.9 -1.2,1.9 -0.3,0.7 0.9,1.9 1.4,1.7 3.1,2.3 3.9,2 0.7,2.2 0.5,1.1 0.7,0.5 3.9,-0.7 1.6,0.1 3.1,2.3 4.5,0.5 2,0.8 2.1,-1.1 10.2,-1.9 -1,7.2 0.2,3.6 1.6,3.1 -0.9,2 -1.2,6.3 -1,2.4 -1.7,1.4 -2.3,1.2 -2.5,1 -2.4,0.3 -1.2,-0.3 -0.5,-0.9 -0.2,-1.7 -2.6,-4.3 -0.5,-0.1 -1.6,-1.4 -3,1.3 -1.8,2.2 1.7,1.3 v 1 l -1.7,1.5 -1.7,-0.3 -1.6,-1.2 -2.1,-2.3 -0.6,-0.9 -0.7,-1.8 -1.5,-1.9 v -0.9 l 1.5,-1.1 -1.4,-3.2 -1,-0.9 -1.5,0.2 -0.7,-2.3 -1.9,-1.3 -2.4,-0.2 -1.9,0.9 -1.5,-0.9 -0.6,0.1 -1,0.8 0.1,-0.9 0.7,-0.2 v -3.8 l -0.9,-0.8 -1.9,0.4 -0.4,-1.1 0.5,-1 2.1,-2.1 0.6,-1.3 -0.3,-1.8 -1.6,-2 -1,-3.7 -1.4,-1.2 -1.8,-0.4 -1.6,0.3 0.7,2 -2.5,-0.6 0.5,-2.6 2,-3 1.6,-1.6 -1.1,-2 -0.9,0.1 -0.8,1 -1.1,0.9 -0.3,1.6 -0.9,0.3 -0.9,-0.3 -0.1,-0.6 0.7,-1 v -1.1 h -1.6 l 2.3,-4.9 -2.3,-1.3 -2.4,-1 -2.8,-0.6 -3.3,-0.1 2.7,-0.9 1.2,-0.7 0.8,-1.4 -0.9,-1.3 -0.2,-1.3 0.2,-1.2 -1.1,-2.4 -0.8,-1 -0.4,0.8 -6.5,-0.5 -7.7,1 -2.3,-0.3 -3.9,-1.3 -1.6,-0.3 -2.1,0.2 -3.5,0.8 -1.7,-0.1 -7.7,-1.9 -1.7,0.2 -3.6,1 -1.6,-0.2 -1.2,-1.5 -2.7,-6.5 -0.8,1 -0.6,0.2 -0.9,-0.1 1.1,-2.2 2.1,-2.3 1.5,-2.3 -0.9,-2.1 v -1 h 0.9 v -0.9 l -2.4,-4.3 -1.6,-1.9 -1.9,-0.8 -4.9,-0.8 -2.4,-0.9 -1.5,-1.2 -0.4,-1.2 -0.1,-2.5 -0.3,-1.2 -2.7,-2.1 -0.8,-1 -0.8,-0.2 -0.8,-0.6 -0.3,-1.6 -0.5,-1.1 -1,-0.9 -3.4,-2.2 -2.8,-1.3 -3.2,-3.5 -1.1,-0.4 -0.7,-0.7 -1.1,-2.8 -0.5,-0.6 -2.6,-1.4 -11,-8.3 -3.9,-2.1 -2.7,-0.9 -1.5,-0.2 -1.9,0.2 -3.4,0.7 -1.6,-0.1 -1.5,-1.2 -2.2,-2.9 -0.9,-0.4 -1.5,-0.1 -1.8,-0.4 -1.8,-0.7 -1.6,-0.5 -1.4,0.5 v 1.1 l 1.6,0.1 1.5,0.6 0.9,1.2 -0.1,2.1 -1.1,0.8 -1.8,0.6 -12.3,1.1 -2.6,1.5 -0.1,-1.6 0.2,-1.7 0.4,-1.3 1.6,-1 2.6,-1.9 1.1,-0.5 2.6,-0.6 5.1,-2.8 3.4,-0.9 3.2,-1.7 2.7,-1 0.4,-0.4 0.5,-2 0.3,-0.6 1.3,-0.4 2.3,-0.1 1,-0.5 0.8,-1.2 0.4,-1.4 v -1.3 l -0.4,-1 1.7,-0.6 2.1,-2 1.1,-0.5 h 7 l 2.4,-0.8 5.8,-3.5 3,-0.5 1.1,0.6 1.7,1.9 0.6,0.5 1.5,0.1 1.7,0.6 1.6,0.9 1.1,1.3 -0.8,2.8 1.1,2.1 2.3,1.5 2.3,0.5 v 1.4 z m -50.2,-9.5 -1.3,1.4 -0.7,0.1 -1.6,-0.3 -0.9,0.2 -1.4,1 h -0.9 l 0.8,2.1 -1.7,0.2 -2.2,1.4 -1.1,0.3 -1.4,-0.3 -1.5,-0.6 -1.5,-0.4 -1.5,0.3 -0.5,1.1 -0.6,3.2 -0.8,0.7 -2.8,0.1 -0.9,0.6 -0.5,1.3 -1.6,-0.1 -2.7,0.7 -2.4,0.2 -1.1,-1.3 -0.5,-1.2 -1.2,0.4 -2.1,1.3 -1,-0.3 -1.9,-1.4 -0.8,-0.7 -3.9,-2.9 -1,0.2 -2,1.5 -1.6,1.4 -2.4,0.3 -0.9,0.3 -0.7,0.6 -0.8,1 -1.5,-1.1 v 4 l 5.4,-0.9 v 0.9 l -2.2,1.4 1.1,1.8 2.2,0.6 1.2,-1.8 h 0.8 l -0.8,2 h 1.7 l 1.5,-0.5 1.2,-0.2 1,0.7 5.5,-2.8 1.4,-0.1 2.7,4.5 2.4,2.9 1.2,0.8 1.2,1.3 1,0.4 0.9,-0.1 2.2,-0.8 1.2,-0.1 1.5,0.4 1.8,1.2 1.6,1.6 0.8,1.7 2.3,-2.3 1.2,-0.6 1.9,-0.1 1.2,0.6 2.2,2 1.7,0.4 6.3,0.1 2.9,1.1 2,2.7 3.5,11.4 1.6,1.5 2.1,0.3 1.1,-0.5 1.3,-1.3 1.3,-0.6 1.4,0.1 1.5,-0.2 1.6,-1.8 -2.2,-1.5 -1,-0.4 2.1,-0.9 2.1,0.4 3.7,2.4 1.8,0.7 3.7,0.5 2.2,0.8 1.6,1.3 1.2,1.9 0.5,2 -0.3,1.8 -1.3,1.4 -1.7,0.8 -1.5,1.4 -0.9,3.3 1.2,-1.7 1.3,-0.1 1.4,1 1.1,1.3 1.3,1 3,0.8 1.6,0.7 v 1 l -1,0.3 -2.6,0.1 -1.1,0.5 -0.9,1 -0.3,1 0.6,0.7 1.8,0.2 7.6,-0.3 11.4,1.9 1.4,-1 1.3,-2 2.7,1.5 3.8,3.9 -2.3,1.5 -0.8,0.4 v 1.1 l 1.4,0.3 1.2,0.6 0.4,0.9 -0.7,1.1 v 1 l 3.5,1.8 5.4,8.2 4.2,2.9 1.6,0.1 4.8,-0.8 -0.4,0.7 -3.1,1.5 -6.4,2 -3.9,3.6 -2.3,3.9 -1,13.6 -3,3.3 -4.1,2.8 -1.9,-0.3 -1.7,-1.5 -3.8,-0.7 -1.8,-1.1 -4.4,-6.3 -1.8,-1.1 -2,0.4 -1.9,-0.3 -1.7,-1.5 0.3,-1.9 1.1,-1.8 -1.1,-2.5 -1.7,-1.1 -4.2,1.2 -2.2,1.1 -1.5,1.8 -0.9,6.5 -1.5,1.7 -3.8,-0.7 -6.4,-0.1 5,1.6 0.2,1 -0.5,0.2 -7.8,-1 -1.7,-0.7 2.3,-2 -3,-3.2 -1.5,-0.3 -3.6,3.5 -1.2,0.4 -3.9,-0.4 v -1 h 2.3 l -1.5,-2.2 -1.6,-1.2 -1.6,-0.5 -6.6,-0.7 -2.1,0.4 -1.2,2.2 1.5,-0.5 1.6,0.1 1.4,0.8 0.8,1.6 h -2 l -3.3,-0.6 -1.6,0.6 -1.5,-6.9 h -0.8 l -0.8,2 -0.7,-2 -2.1,0.7 -4.1,0.5 -1.6,0.8 -4.6,-3 0.9,-1.5 2.1,-1.7 0.8,-1.7 -2.1,-0.9 -4.2,-1.2 -2.6,-1.9 -1.9,-0.6 -0.7,-0.4 -0.6,-0.7 -1.8,-3.1 1,-2.5 -1.6,-3 -2.6,-1.2 -2.2,2.7 2,0.2 0.1,1.2 -1,0.8 -1.5,-0.7 -1.3,-0.4 -1.3,1.1 -1,1.7 -0.5,1.1 v 0.9 l 1.3,0.8 0.9,0.2 v 0.9 l -0.9,0.6 0.2,1.5 -1.3,1.3 -1.4,0.5 -1.6,-0.5 -1.9,-1.3 v -0.5 l -1.3,-2.4 -0.9,-1.3 0.3,-0.3 1.1,-0.4 -1.5,-3.2 -5.4,-6.7 -1,-2.3 -0.6,-0.7 -1.7,-0.6 -5.2,-3.3 0.1,1.5 0.5,2.6 0.2,1.3 -3.1,2.4 -0.9,1 1.4,1.7 h 0.5 l 0.5,-0.7 0.5,1.3 -0.3,1.1 -0.7,0.9 -1,0.6 0.8,1 -0.7,1.2 -1.6,0.1 -2.2,-0.8 -2.9,-0.5 -4.3,0.5 -0.6,-0.8 -1.4,-0.8 -1.6,-0.3 -1,0.4 h -0.7 l -1.4,-0.3 -1.8,1 -1.5,2 -0.7,2.3 -1,-1 -0.6,-1.9 -0.7,-1.1 -1.1,-0.4 -1,0.2 -0.5,-0.2 0.2,-1.5 -1.7,-1.2 -3.6,-1.1 -5.8,-2.6 -2.2,-0.1 -2.1,1 -2.6,-2.6 -3.4,-0.2 -3.2,1.3 -4.6,3.3 -1,0.2 -1.8,0.1 -0.8,-0.5 -0.6,-1 0.8,-2.4 -0.4,-2.8 2.4,-4.3 4.6,-4 4.1,-0.9 2.2,-1.2 1.1,-1.8 -0.4,-4.4 1.8,-4.1 -3.3,-3.7 -0.1,-1.9 1.5,-1.8 -0.4,-4.4 1.4,-3.7 -0.5,-4 1.8,-3.7 v -2 l -4.4,-2.6 -0.2,-1.3 -4.7,2.1 -1.9,1.6 -4.3,2.1 -5.9,-0.6 -0.7,1.9 0.1,4 -4.1,3.3 -2.5,0.4 0.4,-2 -1.3,-2.1 -6.1,1 -4,-0.3 -3.6,-1.7 -6.1,-4.1 -1.7,-1.9 -1.7,-4.2 -0.1,-2 0.8,-2.2 1.9,-1.7 6.5,-3.3 -0.1,-2 -3.7,-1.8 -6.1,-1.3 -1.8,-1.5 -1.9,-0.3 -1.8,-1.5 -0.5,-2 0.7,-3.9 -0.8,-2.5 -11.3,-6.9 -0.5,-2 2.9,-5.5 v -2 l 0.7,-1.9 -0.9,-2.1 -2.9,-4 -0.1,-4.8 1.5,0.6 5.3,-5.5 4.1,-3 2.1,-0.4 3.5,2.9 1.9,-1.7 0.7,-1.9 2.3,-1.6 9.6,-2.5 1.8,1.5 0.9,2.1 0.6,6.1 3.6,2.2 0.9,2.1 -1.1,3.8 0.9,2.1 1.7,1.5 2,0.3 2.1,-0.9 6.4,-4.5 2,-0.1 3.9,3 3.8,1.4 1.6,2.3 0.5,4 -0.7,1.9 0.5,2.1 1.9,0.3 4.2,-0.9 4.8,-2.4 3,-3.5 2.2,-1.3 4.2,-0.9 2.3,-2 3.4,-8.1 10,-11.5 5.5,3.2 7.9,3 4,2.6 1.7,1.5 0.9,6.5 1.7,1.5 7.4,-0.8 -0.6,3.5 0.4,6.5 0.9,2.1 1.8,1.1 4.3,0.3 8.6,-0.9 2.3,0.8 7.1,4.8 2,-0.1 6.1,1.9 4.1,-0.5 1.9,0.7 3.4,3.4 6.5,-0.5 4.4,-2 z"
         id="GRC2989"
         name="Stereá Elláda" />
      <path
         d="m 536.7,997.1 v 0.9 l -3,-0.2 -2.6,-1.4 -4.4,-3.1 v -0.8 h 1.3 l 1,-0.5 1.5,-1.4 1.4,-0.1 1.4,0.2 2.6,0.7 v 1.1 l -0.7,1.2 -0.1,1.4 0.5,1.3 z m 179.8,-7.9 v 0.5 l -2.5,1.3 -1,0.1 -1.8,-0.6 -0.5,-0.7 0.9,-0.9 1.3,0.3 2.1,0.2 1.3,-0.5 z m 46,-7.1 -0.8,1.1 -0.2,-0.9 -1.1,-0.9 0.2,-0.9 0.5,-0.7 2.2,0.6 0.3,1.3 z m -101.4,-69.9 -0.1,1.3 -0.6,-0.4 -0.7,-0.1 -1.3,-0.7 -0.8,0.5 -0.4,-0.5 -2.1,-0.6 v -0.9 l 0.9,-0.8 1.4,-0.3 0.7,-0.9 1,-0.2 2.7,1.9 z m -150.8,-12.4 3.1,0.9 1.7,-0.6 6.4,0.7 2.8,-0.1 1.2,-0.4 1,-0.5 0.7,-1 0.2,-1.4 0.5,-1.1 1.2,-0.4 2.9,0.2 -1.4,-5 3.8,-1.5 5.1,0.5 2.5,1.6 2.3,6.1 -0.3,1 -0.5,0.4 -0.9,1.9 -0.6,0.7 -1,0.5 -1.1,0.2 -2.4,0.1 -4.4,-0.9 -2.5,-0.2 -1.6,1.1 0.5,1.2 2,1.3 2.1,1 3.3,1 3.7,2.6 1.9,0.6 2,-0.4 2,-0.9 1.9,-1.3 1.5,-1.2 1.3,6.3 0.1,2.6 -0.2,5 0.2,1.2 0.9,0.7 2.3,0.1 1.1,0.6 4.1,1.6 10,-3 4,1 2.4,-1.3 9.2,-1.7 3,-1 7,-3.6 2.4,-0.8 2.4,-0.5 h 2.5 l 11.2,1.9 2.3,1.3 1.1,-0.8 1.9,-1 3.2,-1.1 7,2.9 1.3,-1.7 0.2,-1.2 5.4,1.3 1.2,1.7 2,-0.3 0.7,0.2 0.1,0.9 -0.6,1.5 -0.2,0.8 0.9,3.5 2.4,1.5 3.4,0.3 5.2,-0.3 3.2,-0.8 1.8,0.1 1.7,1.6 1,0.3 h 3.4 l 6.3,-1 2.7,0.8 1.7,0.2 1.7,-1 0.8,1 0.8,-1 2.1,2 1.5,2.2 2,1.8 3.2,0.7 3.2,-0.4 17.6,-6.7 2.4,-0.5 1.3,0.3 2.4,1.3 1.7,0.3 h 6.6 l -0.8,1.9 -1.3,1.6 -2.6,2.2 0.8,0.9 -0.6,1.3 -0.1,1.1 0.4,0.8 1.1,0.7 -0.1,-2.4 0.5,-1.1 1,0.1 0.9,1.4 -0.6,0.9 v 0.5 l 0.6,0.6 -0.7,1 -0.9,-0.7 -0.6,0.4 -0.9,1.1 0.4,1.3 -1,1.5 -0.8,2.1 0.6,2.8 -1.3,1.1 0.1,1.2 0.8,1.4 0.4,1.4 0.4,2.8 1.2,0.3 1.6,-0.2 1.9,0.9 1.5,1.1 1.4,0.4 2.5,-0.1 1.4,-0.9 2,-3.9 1.2,-0.8 1.6,-0.3 1.1,-0.8 1.4,-2.4 0.2,-0.4 1.3,-0.3 3.7,-0.3 4.2,-0.8 0.8,-0.4 3.5,-2.3 1,-1 0.9,-0.5 1,-0.3 1.4,0.1 0.6,-0.9 h 0.8 l 1.6,1.4 4.3,1.1 -1.3,1.4 2.4,1.3 2.9,-0.3 2.7,-1.3 2.1,-1.6 -0.6,-0.3 -0.2,-0.6 3.1,-3 2.2,-3 2.4,-2.1 3.9,-0.5 -0.8,-1.8 h 1.6 l -0.8,-2 h 3.1 l -1,2.6 -1.6,1.6 -1.9,1.5 -1.7,2 2,7.1 1.7,3.1 2.5,-1.7 -1.1,2.2 -1.8,2.2 -1.2,2.1 1,2 -0.8,2.5 -1,2.5 -1.2,2.2 -1.2,1.7 -0.6,1.2 -1.1,3.3 -0.7,0.7 -1.3,0.2 -2.1,1.2 -6.5,3 -1.6,0.4 h -3.1 l -0.2,-0.4 -1.6,-1.9 -0.9,-0.5 -2.7,-0.5 -2.2,0.3 h -2 l -2,-1.3 -1.1,-0.9 -0.9,-0.3 -0.9,0.3 -1,0.9 -0.9,0.2 -4,-0.7 -4.8,1 -8.3,2.9 -23.3,-1.1 -7.1,2.3 -1.7,1 -1.9,0.7 -10.3,-1.3 -7.6,0.3 -2.1,0.6 -2.8,0.4 -1,0.5 -1.7,1.1 -6.4,2.6 -1.7,0.4 -6.4,-0.6 -2.5,0.6 -0.7,0.4 -0.9,1.1 -0.8,0.3 H 645 l -1.3,-0.7 -0.9,-0.2 -2,0.1 -1.7,0.4 -2.9,1.3 -1.8,-0.8 -2.2,-0.2 -27.6,1 v -0.9 l 1.5,-1.2 0.4,-1.5 -0.3,-5.3 0.2,-1.6 0.6,-2.7 -0.1,-1.9 -0.3,-1.4 -0.7,-1.9 -0.8,-1.6 -1.5,-1.1 -1.3,-1.3 -1.2,-0.3 -9.9,-0.1 -2.8,-0.6 -1.6,-1.1 h -0.7 l -1.1,0.5 -1.2,-1.2 -2.4,-3 -1.5,-1.1 -2.1,-1.1 -2.2,-0.5 -1.9,0.8 -6.8,-3.4 -0.2,-2.2 -12.2,1.2 -8.5,-1.2 -1.1,-1.1 -0.5,-0.9 h -0.7 l -1.7,1 h -8 l -2,-0.9 h -1 l -0.5,1.4 -0.5,-0.1 -3,0.6 -2,-0.9 -3.2,-4.1 -1.8,-0.9 -9.6,0.3 -4.7,-0.7 -3.8,-2.2 -1.6,1.1 -1.5,-0.3 -1.9,1.6 -7.9,-0.2 -3.2,1.5 -1.6,-1.6 -6.6,0.3 -2.7,-0.6 -0.5,-0.8 0.2,-1.3 -0.4,-0.7 -0.9,-0.5 -1.5,-0.2 -0.7,-0.3 -0.9,-1 -1.6,-2 -1.4,-0.8 0.8,-0.9 -0.7,-0.1 -0.1,-0.8 1.6,-0.9 1.5,-0.2 0.2,-0.8 h 0.6 l -1.3,-2.1 -0.1,-1.2 0.6,-1.5 -0.8,-2.5 1.2,-3.2 1.8,-3 0.9,-2.2 -0.2,-0.9 -0.6,-0.8 -0.7,-0.6 0.1,-1 1.1,-3.5 0.8,-1.2 0.1,-1.1 -1.4,-0.9 v -0.8 l 0.7,-1 -0.7,-1 1.7,-3.5 0.3,-1.6 -0.4,-1.6 2.2,-3.8 0.5,-1.3 0.3,2.8 0.1,5.6 0.7,2.4 0.6,1.5 0.4,0.3 1.8,0.4 v 1.1 l 0.3,0.5 2,0.8 2.7,0.2 2.2,-0.4 1.7,-1.4 1.1,-2.3 0.3,-3.4 -0.7,-2.7 -0.9,-2.5 -0.4,-2.1 1.2,-1.4 -1.1,-2.5 -0.3,-1.9 0.5,-1.8 1.3,-1.9 1.6,-1.6 h 1 l 1.1,1 2.1,1.1 v 1.1 l -1.2,1.4 v 1.7 l 1.2,4.4 -0.1,3.6 0.1,1.1 2.3,4.3 2,1.4 z"
         id="GRC2990"
         name="Kriti" />
      <path
         id="GRC3001"
         d="m 709.8,189.9 1.8,1.9 1,2.1 -0.7,1.9 0.5,2.2 -1.4,1.5 -10.6,3.7 -2.4,-0.3 -3.9,-2.2 -7.5,-6.1 -1.6,-1.9 -1,-1.9 h 2.1 l 6.6,-3.9 2.9,-1.1 3.3,0.1 9.1,2.7 z m -100.2,-19.7 -0.3,1.2 -0.8,0.1 -1.9,-1.2 -1.3,1.7 -2,0.8 -3.7,0.7 -1.4,0.5 -2.7,2.6 -1.7,1 -0.6,-1.4 -0.7,-1 -1.8,-1.7 -1.3,0.1 -0.4,-0.5 0.1,-1.7 -1.6,-1.4 -0.7,-0.5 -3.1,-0.8 h -2.5 l -1.6,-1.3 -0.5,-4.1 0.7,-3.8 1.7,-3.8 3.8,-5.6 8.5,-7.2 3.6,1.9 4.6,0.5 1.9,0.7 0.4,0.9 0.3,1.4 0.6,1.3 1.3,0.5 1.2,0.3 1.1,0.7 0.8,1 0.4,1.1 -2.3,0.1 -0.7,1.6 0.8,1.8 2.2,0.5 v 3 l -1.9,0.7 -0.4,2 0.8,4.5 0.7,1.7 z M 505,146.3 l 0.3,-1 9.7,-2.2 2.3,-1.3 6,-5 2.3,-3.6 6.4,-5 1.6,-1.8 v -2 l 1.2,-1.8 0.3,-2 -1.2,-4.4 0.8,-1.9 -2.6,-1.3 -5.3,-4.7 -2.5,-4.6 -2.1,-1.6 -2,-0.4 -2.2,0.4 -2.1,2.1 -3.4,-3.5 -6,-1.5 -5.8,-4.4 -6.7,-8.3 -5.4,-4.6 -0.8,-2.3 0.8,-3.9 1.2,-1.9 -0.1,-2.1 -9.5,-4.6 -1.7,-6.5 0.7,-3.1 v -0.3 l 0.3,-0.2 2.8,-2.8 2.2,-0.8 3.7,-0.1 3.7,0.9 1.9,-0.5 2.5,-4.3 1.7,-0.8 2,0.1 2.4,-0.3 2.3,-0.6 1.8,-0.8 3.1,-2.9 0.9,0.1 5.3,3.9 1.7,-0.1 1.8,-1.8 1.8,-1 0.4,-1 2.5,1.6 1.3,0.3 1.3,-0.6 0.7,-1.2 0.1,-1.2 -0.4,-3.4 -0.2,-4.8 3.3,-1.6 4.5,0.4 3.3,1 0.9,0.7 1,1.5 0.8,0.1 0.3,-0.5 0.5,-2.4 0.5,-1 1.6,-1.4 2.1,-1.3 2.1,-0.9 2,-0.3 1.8,2.1 2.2,1.4 0.1,1.3 -0.3,1.3 0.2,0.8 1.1,0.4 1.5,-0.7 1,-0.2 3,0.4 1,-0.1 3.8,-1.2 1.7,-0.1 2.4,0.4 1.7,-0.4 2.3,-3.3 2.5,-0.6 3.2,-1.2 2.3,2.1 1.4,3.9 0.4,4.2 0.3,1.3 2.1,2.6 1.1,0.6 0.4,0.5 0.1,0.8 -0.3,1.7 0.1,0.5 1.8,1.6 1.5,0.4 3.9,-0.1 -0.7,1.5 h 2.6 l 2.2,0.4 2.1,0.9 2.2,2 3.8,5 2.5,2.2 2.2,0.1 1,-2.2 -0.3,-2.6 0.3,-2 4.4,-0.3 2.3,-0.9 1.2,-0.2 1.5,0.2 3.4,2.1 18.4,7.9 1.9,-0.4 h 0.5 l 1.7,2.4 4.7,2.2 2.1,1.8 4.8,6.6 2.2,1.4 2.6,0.4 2.7,-0.2 18.9,-6.2 2.8,-0.5 1.2,0.1 1.8,0.4 1.1,-0.4 1,-1.2 0.7,-1.7 0.9,-1.4 1.5,-0.5 9.9,0.6 1.1,0.4 2.4,1.4 1.1,0.3 1.2,-0.2 1.6,-1.3 1.4,-1 1.3,-0.5 3.9,-0.2 4.2,-2.9 1.1,-0.5 2.5,1 3.3,3.7 2.2,0.9 1.6,-0.3 2.8,-1.5 h 1.6 l 1.5,0.3 1.3,-0.1 2.5,-1.3 3,-2 1.5,-0.7 9.6,-2.3 0.8,0.2 0.7,-0.4 1.3,-2 1.8,-3.8 1.2,-3.8 0.6,-0.9 1.3,-0.6 0.2,-1.2 -0.4,-0.9 -1.5,-1.5 -0.5,-0.7 -1.2,-2.6 0.2,-1 1.4,-1.4 0.4,-1.9 0.1,-1.7 -0.1,-1.7 -0.6,-2 -0.6,-0.7 -1.8,-0.3 -0.6,-0.6 -0.2,-1 0.2,-2.4 -0.1,-1.1 -1,-3.8 -0.7,-1.3 -1,-1.2 -1.3,-0.6 -1.5,-0.3 -1.6,-0.7 -1.4,-2 -0.5,-1.8 -0.3,-2.1 v -2.2 l 0.7,-1.9 0.7,-0.9 1.6,-0.3 0.8,-0.3 3,-2.5 3,-0.8 6.2,-0.2 2.5,-2.4 1.6,0.1 0.9,0.6 3,3.4 1.5,1.3 2.3,0.7 7.3,-0.7 2,0.6 3.1,2.9 4.3,1.1 2,0.8 1.8,0.5 -0.4,2.2 -1,1.9 6.4,4.8 5.1,2.7 1.1,1.2 2.2,-3.3 0.1,2.3 0.7,1.8 -0.5,1.8 0.4,3.9 -0.7,1.5 1.2,2.2 0.5,2.6 0.6,5.6 1.8,7.3 0.5,3.1 V 57 l -0.5,3.2 -1.1,2.5 -1.4,1.5 -2.1,0.2 -2.4,-0.6 -2.2,-1.3 -1.1,-1.5 -5.8,6.2 -1.2,0.2 -1.4,1.8 -3.1,2.1 -3,2.6 -1.9,1.1 -7.1,0.7 -1.3,1.2 1.8,2.6 -1.2,3.2 -0.5,2.9 0.3,2.7 1.4,2.6 -2.1,3.3 v 1.2 l 1.6,0.5 0.9,0.7 -2,3.9 0.3,2.1 1.6,3.4 1,1.6 3,1.5 0.1,1.7 -0.8,1.7 -1,0.8 -1.7,0.2 -0.9,0.6 -0.4,1 0.4,1.3 1.1,1.5 1.1,0.6 0.4,0.5 -1.2,1.5 -1.5,1.2 -3.3,1.6 -1.3,1.3 1,1.7 0.1,1 -1.5,0.4 -1,-0.2 -0.8,-0.4 -0.6,-0.7 -0.4,-0.8 H 776 l -0.9,2.9 -0.6,1.4 -0.8,0.9 h -0.8 l -0.7,-2.1 -0.1,2.4 -1.5,0.6 0.1,0.9 -0.8,1.2 -0.1,1 0.8,1.7 -6.1,5.2 -1.7,2.7 -0.9,4 -2.5,3 -3.5,1.7 -4.2,-0.4 0.3,-0.6 -1.2,-2.3 -0.3,-3 -0.7,-2.7 -2.4,-1.2 v -1 h 1.5 l 2.1,-0.3 1.8,-0.5 0.7,-0.7 -0.7,-1.5 -1.7,-0.2 -1.8,0.5 -1.2,0.7 -0.4,-1 -0.3,-1.2 h -0.9 v 1.2 l 0.5,0.7 0.4,1.4 h -0.9 l -1.7,-2.1 -3.5,-2.2 -3.8,-1.1 -2.4,1.2 -1.9,-0.5 -6.1,-0.2 -1.3,-0.8 -1.2,-0.2 -8.1,0.7 -4.6,-0.9 -4.9,-1.8 -4.8,-0.9 -4.2,1.6 -3.4,-0.8 -2.3,-1.3 -1.7,-1.5 -1.7,-1.2 -5.6,-1.2 -2,-0.1 -4.1,-1.9 -4.7,-3.4 -4.7,-1.5 -3.7,3.7 h -0.8 l -0.1,-0.7 -8.8,-1.6 -2.3,-1.4 -1.5,-1.1 -1,-0.1 -0.4,-0.5 0.2,-1.8 0.5,-1.2 0.9,-1 1.1,-0.6 1.3,-0.3 -2.1,-1.4 -1.4,-0.7 -9.2,0.1 -2,0.5 v 2.5 l -2.3,2.1 -1.4,0.8 -1.7,0.2 0.9,2.8 -1.1,1.1 -2,0.2 h -2 l -1.5,0.5 -3.7,2.1 -1.8,0.4 -3.2,2.3 -3.3,4.6 -3.6,3.2 -4.1,-1.8 -4.2,1.9 -2.2,0.1 -2.1,-1 0.8,-1 -3.9,-2.2 -2.4,2.3 -0.7,0.9 h -0.8 l -1,-2.4 -1.2,-2.1 -1.4,-1.9 0.5,-1.8 -1.6,-0.8 -1.2,-1.2 -0.8,-1.6 -0.2,-2.1 -5.5,-1 -1.5,-0.5 -1,0.9 -1.3,0.2 -1.3,0.4 -1,1.6 -2.4,-1 -3.1,0.3 -2.6,1.4 -2.2,3.3 -5.1,4.2 -1.6,0.9 1.3,1.2 0.9,1.4 -0.1,1.1 -2.5,0.7 -0.4,0.5 v 0.8 l 0.4,1 0.6,0.4 1.9,-0.1 1,0.3 -26,15.4 -4.1,0.9 -4.9,-0.3 -4.9,-1.3 -12.7,-6.8 z m 7.4,68 0.5,0.4 1,0.3 1,0.6 -0.6,0.7 -2.3,-1 -0.4,-0.6 -0.8,-0.1 -2.1,-0.9 -0.4,-0.6 0.7,-0.9 1.9,-0.8 0.6,0.2 0.7,1 z M 479.2,57.2 v 0.3 l -0.7,3.1 1.7,6.5 9.5,4.6 0.1,2.1 -1.2,1.9 -0.8,3.9 0.8,2.3 5.4,4.6 6.7,8.3 5.8,4.4 6,1.5 3.4,3.5 2.1,-2.1 2.2,-0.4 2,0.4 2.1,1.6 2.5,4.6 5.3,4.7 2.6,1.3 -0.8,1.9 1.2,4.4 -0.3,2 -1.2,1.8 v 2 l -1.6,1.8 -6.4,5 -2.3,3.6 -6,5 -2.3,1.3 -9.7,2.2 -0.3,1 -1.4,-0.3 -3.7,0.4 -6.2,2.6 -2.5,1.7 -2.4,2.1 -1.5,2.4 -0.6,3.9 1,3.2 2,2.2 2.6,0.9 1.6,1.1 1.9,2.6 1.6,3.2 0.7,2.7 0.7,0.2 3.9,3.4 1.5,0.5 1.7,0.2 1.7,-0.2 1.3,-0.5 0.7,1.6 2.2,2.1 0.1,1.4 -0.9,0.6 -7.8,1 -1.7,1.7 -0.5,2.9 0.9,3.9 4.7,7.1 1.1,1.1 3.6,1.7 0.6,0.8 4.3,1 1.2,0.4 1.3,-0.6 3,-0.4 0.2,-0.1 0.2,0.3 -0.1,3.8 0.1,2.5 -0.1,2 -0.4,1.3 -0.9,-0.6 -4.1,-4.2 -2.3,-1.9 -1.6,-0.6 -4.2,0.6 -4.2,-1.1 -1.6,0.1 -5.8,2.9 -2.5,0.5 -3.3,-1.4 -1.1,2 h -0.5 l -1.9,2.8 -0.7,2.5 0.3,2.4 1.7,4.7 1.4,1.8 3.8,2.6 0.8,2.4 1.6,1.8 1.6,1 0.7,-0.2 7.7,3.7 1.4,-0.6 1.9,0.8 1.9,1.4 1.4,1.7 1.7,1.3 4.4,1.6 1.2,1.7 -0.1,1.3 -1.4,1.4 v 1.4 l 0.6,0.9 2.1,1.5 0.4,1.1 -0.4,1.2 -1.6,0.2 -0.3,0.6 0.3,1.7 0.7,0.7 1,-0.2 1.1,-0.7 v 2.5 l 0.3,0.8 0.5,0.7 -3,2.6 -0.5,1.3 1.2,1.2 v 1 l -2.2,0.1 -1.1,0.9 0.4,0.9 2,0.1 v 1.1 l -5.7,0.2 -2.3,-0.6 0.3,-1.7 v -1 h -0.8 l -0.9,0.7 -0.8,-0.2 -0.3,-1 0.6,-1.5 -4,-2.3 -0.7,-0.3 -0.6,-1.6 -1.2,-1.1 -1.6,-0.3 -0.8,0.7 -0.1,0.7 0.4,1.2 -4.1,-6.9 -0.6,-1.7 0.8,-2.4 0.2,-1.5 -0.6,-0.7 -1.1,-0.5 -0.7,-1.1 -0.9,-2.5 -10,-13.5 -3.8,-2.6 -2.2,-0.6 -9.2,-0.8 -6.4,-3.6 -5.1,-1.5 -4.5,0.3 -3.8,2.3 -2.8,5 -0.3,2.9 0.9,2.5 1.1,2.4 0.6,2.7 0.4,0.9 0.8,0.5 2.3,0.2 1,0.3 0.7,0.7 1,1.9 6.1,8.7 3.3,3.7 11.7,6.4 7.6,1.8 0.3,0.9 v 1.3 l 0.3,1.5 1.1,1.8 1.3,1.2 1.8,0.8 2.4,0.2 1.5,0.5 -0.8,1.1 -2.1,1.1 -2.1,0.4 -9.8,-1.5 -16.4,-7.1 -2.7,-0.5 -8.4,1.4 -1.3,0.6 0.6,-1.6 1.5,-2.8 0.3,-1.7 -0.4,-1.2 -1.6,-2.3 -0.4,-0.9 -0.9,-3.6 -2,-2.6 -2,-2.1 -1.2,-2.3 1.5,-4.7 0.6,-5.7 -0.7,-5.2 -2.2,-3.7 -4.6,-2.6 -2.4,-1 -4.2,-0.9 -2,-1.2 -1.8,-0.9 -1.9,0.6 -5.9,-4.4 -1.1,-0.2 -1.2,-1.1 -2.7,-0.6 -2.6,-1 -2.1,-3.8 -5.3,-4.2 -2.1,-1 -2,-0.3 -4.4,0.3 1.1,-2.3 -0.9,-2.4 -3.4,-4.4 0.9,-0.2 -0.1,-0.7 -4.1,-4.7 -1,-2.4 2.5,-1.1 7.2,-0.4 3.8,-0.8 1.7,-1.3 0.7,-1.3 1.4,-1.1 0.9,-1.5 -0.7,-2.7 -4,-2.5 0.2,-1 0.7,-1.7 -1.8,-3.7 -2.6,-2.1 -3.1,-0.4 -3.2,1.2 0.7,2.8 -0.2,2.3 -0.9,1.7 -1.2,1.4 -1.8,0.9 -1,0.8 0.1,0.3 h -2.3 l -1,-0.3 -1,-0.8 -2.2,1.5 -1.4,1.9 -0.4,2.2 0.9,2.6 H 380 l -0.9,-1 v 2.1 h -0.7 v -1.1 h -0.8 l -0.5,1.7 h -0.9 l -1.2,-1 -1.2,-0.7 -0.1,-0.7 -1.7,0.1 -1.8,1.5 -0.1,1.8 2.1,1.2 -1,0.2 -0.7,0.3 -0.5,0.8 -0.1,1.4 -0.4,0.8 -1.1,-0.3 -1.6,-1 -2.7,0.1 -1.4,0.5 -1.3,1.4 1.6,1.5 1.2,2.1 0.5,2.3 -0.2,2.2 1.3,1.2 1.1,1.7 1.3,1.5 2.1,0.6 0.3,1.6 -1.5,3.4 -3,5.2 -3.4,10.2 v 1.7 l -4.3,9.4 -0.3,3.3 0.8,2.5 1.2,2.4 0.6,3.4 -0.5,3.4 0.3,1.5 1.3,0.7 0.5,0.7 1.5,4.2 5.9,5 1,0.6 0.6,0.6 2.7,0.9 0.8,1.1 1.1,-0.1 0.2,0.6 -0.1,2.7 0.1,0.5 -1.2,0.3 -5.9,1 -1.7,-1.6 -2,-0.3 -9,2.5 -4.2,-1.5 -3.4,-3.4 -2.5,-4.5 -7.6,-5.3 -3.4,-3.8 -1.3,-4.2 0.3,-6.4 -0.9,-2.2 -3.7,-2.2 -4.7,1.6 -2,1.7 -2.2,3.7 -2.4,2 -1.9,-0.7 -0.9,-2.2 0.4,-2.3 -0.4,-2.1 1.1,-1.8 0.4,-2 -5.9,-1.4 -2.3,1.3 -1.1,1.8 -0.9,-2.2 -0.3,-2.8 0.8,-2.3 4.4,-2.1 1.6,-1.8 0.3,-4.4 1.8,-3.3 -5.3,-2.5 -1.2,-2.3 -0.5,-4.1 -3.8,-4.3 -0.5,-2.1 0.4,-1.9 -0.9,-2.2 -6.3,1 -1.9,-1.1 v -2.1 l -3.7,-2.6 -4.1,-1.9 -1.8,-1.9 -2.4,-4.8 -1.8,-1.5 -0.1,-2.1 1.5,-3.8 -3,-4.1 -0.2,-4.1 2.8,-6.5 h -2.5 l -1.8,-1.1 -2.1,0.1 -4.7,-1.6 -2,0.1 -2,-0.7 2.7,-6.5 v -2.1 l -3.9,-1.4 -1.3,-2.2 -1.7,-6.8 -1.8,-1.9 0.8,-2 4.1,0.3 4.2,-1 2.2,-0.9 2,-1.7 0.3,-2 -1.7,-1.9 -3.9,-1.8 -0.7,-5.2 0.9,-0.2 1.5,-1.5 0.4,-1.7 v -1.6 l 0.2,-1.3 1.1,-1.4 4.2,-2.9 1.6,-2.8 4,-3.9 1.5,-2.3 0.3,-1.2 0.1,-2.9 0.4,-1.5 0.9,-1 2.9,-2.1 3.4,-1.9 7.2,-2.1 0.6,-0.4 1.1,-1.3 0.5,-0.3 0.8,0.3 0.8,1.9 3.8,2 0.8,0.3 2.4,-0.8 4,-3.7 2.6,-1.2 2.5,-0.2 2.2,0.2 4.3,1.4 3.4,0.5 1,0.3 0.3,0.5 0.2,2 0.2,0.5 0.7,0.1 1,-0.6 2.1,-0.1 2.9,-0.5 1.4,0.1 1,0.5 2.4,1.6 1.3,0.5 3.3,0.1 1.8,-0.2 3.8,-1.1 h 1.7 l 3.7,0.6 2.5,-0.2 2.1,-0.8 2,-1.6 1.9,-2.5 0.3,-1.2 -0.1,-1.4 0.3,-1.1 1.8,-0.4 1.3,0.3 0.6,0.8 0.5,1.2 0.9,1.2 2,1.8 1.5,0.7 1.2,-0.9 1.3,-3 1,-5.8 0.5,-11.8 1.2,-4.8 3.3,-2.9 5.1,-0.9 10.2,0.7 22.4,3.5 4.7,-0.5 2.5,-0.8 1.3,-0.7 1,-1 0.6,-1.5 0.1,-2.7 0.4,-1.2 1.7,-1.6 2.5,-1.6 2.6,-1.1 2,-0.1 2.1,1.4 1,1.8 1.2,1.1 2.4,-0.3 2,-1.1 3.4,-2.5 2.2,-0.7 11.1,0.3 7.4,3.9 3.8,0.1 z m -210.4,68.1 0.7,5.2 3.9,1.8 1.7,1.9 -0.3,2 -2,1.7 -2.2,0.9 -4.2,1 -4.1,-0.3 -0.8,2 1.8,1.9 1.7,6.8 1.3,2.2 3.9,1.4 v 2.1 l -2.7,6.5 2,0.7 2,-0.1 4.7,1.6 2.1,-0.1 1.8,1.1 h 2.5 l -2.8,6.5 0.2,4.1 3,4.1 -1.5,3.8 0.1,2.1 1.8,1.5 2.4,4.8 1.8,1.9 4.1,1.9 3.7,2.6 v 2.1 l 1.9,1.1 6.3,-1 0.9,2.2 -0.4,1.9 0.5,2.1 3.8,4.3 0.5,4.1 1.2,2.3 5.3,2.5 -1.8,3.3 -0.3,4.4 -1.6,1.8 -4.4,2.1 -0.8,2.3 0.3,2.8 -2.6,3.3 -1,3.8 -3.4,5.5 -5.4,5.6 -1.1,3.9 -2.3,4 -4.5,2.5 -5.3,5.2 -2.3,1.6 3.7,2.2 0.8,2.2 -0.3,2 0.9,4.1 -0.3,2 -1.5,1.3 -5.9,-0.9 -8.4,1.9 -4,-0.3 -11.3,-2.9 -16.7,-2.2 -4.3,1.7 -2.3,1.6 -2.6,3.7 -2.2,1.2 -4.7,1.7 -2.1,0.1 -1.4,-1.4 v -2 l -7.5,-4.4 -4,-0.2 -6.3,1.5 -4.3,1.7 -1.9,-0.7 -2.2,-4.3 -1.5,-8.3 -3.5,-3.3 3,-6 0.2,-4.4 -1.7,-1.5 -4.4,2.2 -3.1,-4.1 -1.4,-6.2 -1.8,-1.5 2.8,-5.2 0.4,-2.4 -1.5,-6.2 -3,-6.6 -4.8,-5.9 -2.2,-6.8 -1.7,-2.3 -4.2,1 -1.5,1.8 -2.2,1.3 -2.1,0.1 -1.3,-1.1 -0.4,-0.5 1.7,-4.3 1.3,-2.4 0.5,-1.2 0.3,-1.8 v -1.5 l -0.5,-4.1 0.2,-1.4 1,-1 2.3,-0.6 1,-0.5 0.9,-1.5 0.5,-1.5 0.6,-1.2 1.5,-1 3,-0.1 2.6,1.2 2.5,0.7 2.8,-2 1.1,-1.5 0.7,-1.6 -0.1,-1.8 0.7,-1.3 1.2,-0.9 1.4,-0.4 0.8,-1.5 1,-0.8 1.1,-0.6 0.7,-0.9 0.6,-1.5 0.5,-4.1 1.2,-5.1 0.3,-2.8 -0.1,-2.9 -0.7,-2.6 -0.9,-1.5 7.3,-4.2 1.5,-1.4 0.5,-1.3 2.2,-3.6 0.8,-0.7 -0.2,-0.9 -1.4,-4.5 -0.3,-1.8 h -1.8 l -1.4,0.5 -1.2,1.1 -1,1.4 -1.3,1 -0.4,0.7 0.5,0.9 2.9,2 0.5,0.7 -0.8,3.4 -2.9,3.1 -3.6,2.3 -0.6,0.3 -2.6,-3.2 -3.2,-3.1 -0.5,-1.1 -0.2,-1.2 -0.4,-1.1 -1.1,-0.9 1.9,-2.3 0.5,-2.2 4.9,-3.2 1.7,-4.2 h 0.7 l 2.2,0.1 1.5,0.9 1,1.4 0.8,1.8 3,-2.8 1.1,-1.7 0.3,-1.2 7.3,-2.2 3,0.1 5.8,1.3 h 3.9 l 3.8,-0.9 1.8,-1 4.1,-4.1 2.6,-1.2 h 2.8 l 9,1.2 5,4.5 3.1,0.6 1,-0.6 2.6,-2.6 1.2,-0.9 0.6,-0.1 h 1.6 l 0.6,-0.2 0.4,-0.8 0.3,-1.9 0.2,-0.6 3.2,-1.5 5.8,1.4 z m 252.8,89.4 0.4,-1.3 0.1,-2 -0.1,-2.5 0.1,-3.8 -0.2,-0.3 0.9,-0.8 -0.1,-1.4 -0.6,-1.9 -1.7,-2.9 0.9,-1 -0.9,-1 2.3,-0.2 2,2.5 2.7,5.9 1.4,1.7 2.3,2.2 2.6,1.3 2.2,-1.2 1.2,0.7 3.4,1.2 1.2,0.2 0.8,0.7 1.2,3.3 0.7,1 3.3,0.1 3.7,4.1 6.2,9 7,7.2 1.2,3.9 -3.7,3 -4.8,1.1 -2.1,-0.5 -0.8,-2.1 -0.7,-2.6 -1.7,-1.6 -2,-1.1 -1.7,-1.2 -3,-4.5 -2.2,-4.7 -2.6,-3.9 -4.6,-2.2 -9.1,-1.6 -3.2,-1.4 z" />
      <path
         d="m 859.3,914 0.9,2.9 v 0.8 l -1.7,0.1 -2.8,0.5 -1,0.5 -1.4,0.9 -1,0.9 -1.1,0.7 -1.5,0.3 -1,0.4 -1.9,2 -1.3,0.4 -1.4,-0.6 -1.2,-1.3 -0.6,-1.3 0.4,-0.6 1.1,-0.5 2,-2.6 1.2,-1.1 0.7,-1.9 0.4,-0.5 1,0.2 1.2,0.7 0.6,0.1 4,-1.7 1.8,-0.2 2.9,-0.8 1.1,-0.1 0.2,0.9 z m 25.8,-53.3 -1.5,2.7 -0.4,1.7 v 3.4 l 0.2,1.2 0.6,1.4 v 1.1 l -0.7,1.1 -1.3,1.3 -1.3,1.6 -0.6,2.2 -0.4,1.2 -1.1,1.3 -1.1,1.7 -0.5,2.4 v 2.1 l 0.2,1 2.9,2.2 2.8,5 1.3,1.2 -0.5,1 -1.2,1.3 -0.1,1 0.8,0.9 2.4,2.3 0.5,1.5 -0.6,2.9 -2.9,-0.7 -2.9,1.2 -2.1,2.6 -0.6,3.5 0.9,-1 0.7,0.1 -0.6,1.1 -0.8,1.1 -1.2,0.9 -1.3,0.7 0.8,-2.3 -0.9,-0.8 -1.6,-0.2 -1.4,-0.5 -1,-1.3 -0.8,-1.6 0.2,-1.3 1.6,-0.6 v -0.9 h -0.7 v -0.9 l 1.8,-0.5 0.1,-1.5 -1.2,-3.8 0.1,-1.9 0.5,-2.3 -0.6,-1.5 -0.9,-0.7 -2.9,-1.8 -0.8,-1.2 0.2,-1.9 0.8,-1.9 1,-1.4 0.7,-0.6 2.7,-1.6 0.9,-3.6 0.5,-3.5 2.9,-3.4 0.9,-4 0.1,-4.3 -0.7,-2.3 v -1 l 1.6,-1 h 0.8 v 1 h 0.7 l 2.4,-2.9 0.9,-0.8 0.8,-0.2 0.7,0.3 0.6,0.7 z m 43.5,-57.2 -0.5,0.5 -0.9,-0.1 -2.2,0.6 -1.6,-0.3 -2,-0.2 -2.2,0.6 -1.4,-0.7 -0.2,-1.9 1.1,-1.3 2.5,-0.6 1.9,-0.1 5.7,0.3 0.3,0.7 -0.1,1.3 z m 12,-7.3 -0.2,0.7 -1.7,2.8 -0.5,-0.1 -0.5,-0.8 0.6,-0.9 0.2,-0.9 -0.5,-0.2 -1,0.6 -0.6,-0.1 0.4,-1.2 0.8,-1 0.7,-0.5 1.2,-0.3 0.8,0.4 z m -210.2,-12.8 -0.9,1.9 -1,-0.2 -1.1,-1.1 -1.2,-0.6 -1.8,0.3 -1.4,0.7 -1.4,0.4 -2.9,-0.6 -0.9,-0.1 -1.2,-2 -0.3,-1 0.6,-0.5 1.6,-0.6 1.1,-1.1 1,-0.8 3.9,1.7 3.7,3.2 z m 268.6,-9.7 -1.6,2.1 1.2,6.3 -2.3,1.3 -0.5,0.8 -0.7,4.9 -0.9,1.5 -2.4,3 -0.6,1.8 -0.2,3.9 -0.6,1.7 -1,0.7 -0.7,0.9 -1.4,4.3 -0.6,1.4 -0.3,-0.1 -2,-0.1 -0.8,0.2 -0.4,1.5 -0.5,1 -1,0.4 -2.8,6.7 2,1.3 2,0.5 -0.8,2.2 -1.6,1.7 0.5,0.6 1.1,2.3 -5.9,-1.9 -2.3,-0.1 -2.6,1 -5.1,3.2 -1.8,1.9 -4.5,7.5 -3.3,4.3 -4,3.8 -5.3,3.3 -4.7,-3.2 -0.7,-0.3 -0.3,-0.9 -2,-4.4 1.5,-2 3.2,-9.7 0.7,-3.5 -0.4,-3.1 -1.1,-1.6 -1.6,-1.2 -2.7,-3.2 -0.2,-0.6 0.7,-1.1 -0.1,-0.7 -1.1,-0.8 -1.3,0.1 -0.8,-1.2 1.9,-0.7 4.4,-3.1 2.6,-0.9 1,-0.8 -0.5,-1.2 1,-0.8 0.5,-2.9 0.7,-1.7 0.8,-1.3 1,-2.2 0.6,-0.6 3.3,-0.9 1.3,-1.8 3.8,-3.9 0.8,-1.6 1.1,-1 6.7,-2.3 12.6,-6.8 1.7,-1.4 3.6,-1.8 7.4,0.5 3.4,-4.4 h 0.9 l 1,0.8 1,1.6 z m -309.8,7.7 -1.1,2.8 -1.6,2.2 -2.1,0.8 -2.3,-0.2 -5.2,-1.6 -2.1,-1 1.3,-0.7 h 2.7 l 1.4,-0.3 1.1,-0.9 1.1,-2.2 0.9,-0.7 -0.8,-3.7 -0.5,-1.4 -1,-0.8 v -0.8 l 0.6,-1.8 -1.7,-0.9 -4.3,-1.2 v -1 l 1.5,-0.9 4.1,1.3 3.8,2.9 3,3.6 1.4,3.7 z m 211.7,-13.2 1.4,3.9 1.8,0.8 -1.1,2.5 1.4,1.5 2.3,0.2 2,-1.3 0.6,0.8 0.1,1.1 -0.6,1.4 -1.2,1.3 -1.4,0.7 -1.3,-0.5 -0.6,0.7 -1,-0.7 -1.4,0.2 -1.5,-1.6 -0.8,-2.3 0.6,-2.1 -1.5,-0.9 -1.3,0.4 -1,1.1 -0.8,1.3 h -0.8 l -0.6,-1.2 -1.4,-1.1 -0.3,-1.1 0.1,-2.8 0.2,-1.3 0.4,-1.2 1.1,2.2 1.7,-0.6 1.8,-1.6 1.6,-0.9 z M 879,755.8 h -1.5 l -2.4,-0.4 -1.1,-0.9 -0.4,-1.4 1.2,-2.8 3.3,-2.1 2.2,-0.1 1,1.2 1.3,2.8 -0.9,2.6 z m -80.5,-5.1 0.7,2 -0.7,0.7 -0.5,0.1 -0.6,-0.5 -0.6,-1.3 -1.7,1.6 -1.5,0.5 -3.3,-0.1 -1.5,0.4 -1.2,1.3 -1.6,3.1 -0.1,1.9 0.2,1.7 -0.9,0.9 -2.7,0.2 -1.9,-0.8 -2.1,-3.7 -1.8,-1.1 0.4,-1.4 0.4,-0.5 -1,-1.7 -0.3,-2 0.5,-1.2 1.6,0.9 1.6,-1 1.9,1.2 1.9,1.8 1.5,0.9 1,-0.5 1.1,-1.9 0.6,-0.5 2.3,0.5 0.9,0.1 1.1,-0.6 -1.5,-0.8 -0.6,-1.3 0.5,-1.6 -1.2,-0.4 -1.9,-1.6 v -1.1 l 3.5,0.2 4.2,2.5 z m 153.5,-3.8 -0.8,2 1.5,-0.5 0.8,1.5 3.8,-3 0.8,1 -0.6,0.5 -0.2,0.9 0.4,0.2 v 0.8 l -0.4,1.4 0.1,1.7 0.2,1.2 0.5,1.1 -1.5,0.8 1,0.7 0.5,1.3 -2.5,1.5 -1.3,0.4 h -1.6 v -0.9 l 0.6,-0.3 1.7,-1.6 -4.9,-1.7 -1.5,-1 1.8,-1.2 H 945 l 0.7,-1.4 1.3,-1.4 1,-1.5 0.1,-1.5 h 0.5 l 1,-1 v 1 l 1.9,-2.4 2.7,-1.5 2.1,-0.3 0.3,1.2 -3.2,1 z m -322,3 v 0.9 l -2.9,-0.2 -1.7,-0.7 -3.1,-3 -1.8,-1.2 -1.8,-0.8 -1.5,-1.2 -1.1,-2.6 2.4,-0.1 0.7,0.1 9,5.8 z m 18.7,-8.1 -4.1,3.3 -2.9,-0.2 4.2,-8.6 1.3,-0.4 2.2,-2 1.1,-0.5 4.5,0.1 -0.3,0.4 v 1.4 z m -76.5,-13.1 2.7,0.9 4.3,-2.4 2.3,-0.5 1.4,1.9 -0.3,1.6 0.3,7.6 -0.9,1 -2.2,1.1 -3.8,1.2 -13.5,0.3 -4.2,1.7 -0.5,-2 1,-3.1 -0.5,-1.7 0.5,-0.4 1,-1.4 -1.5,-1.1 1.1,-1.1 0.9,-2.5 1,-1.2 1.3,1.6 1.8,1.3 1.6,-0.3 1.3,4 2.2,1.1 h 3.8 l 1.2,-0.7 -0.3,-1.5 -1,-1.6 -1,-1 -1.6,0.9 -1.1,-0.9 -0.9,-1.6 -1.1,-1.3 v -0.9 l 1.3,-1.5 1.4,0.9 z m 23.5,0.4 -1.6,0.5 -1.7,-1.5 -2.5,-3.3 1.6,-1.9 h 1.9 l 0.6,0.2 -0.2,0.6 1.6,0.9 1,1.1 0.2,1.5 z m 83.4,3.2 1.1,2.2 -1.4,0.2 -0.8,1 -0.1,1.3 0.7,1.3 v 0.9 l -2.5,3.5 -4,-2 -7.3,-7.3 0.8,-0.9 -1,0.1 -2.2,-0.1 0.6,-1.3 0.6,-2 0.3,-1.7 -0.2,-0.8 5,-3.8 1.4,1.8 1.8,3.4 1.4,1.5 2,1.1 2,0.6 z m -92.3,-15.6 0.6,0.3 0.8,-0.1 0.9,-0.8 0.3,0.9 0.5,0.1 v 1 l -0.8,0.9 -3.1,5.7 -1.9,0.2 -1.9,-0.6 -0.8,-1 -0.3,-1.7 -0.6,-0.9 -0.4,-1 0.6,-1.6 0.9,-1 1.5,-0.9 1.6,-0.5 1.4,0.4 z m 98.8,2 -2.6,0.3 -1.3,-1.4 0.8,-1.6 1.9,-1.9 2.7,-1.9 h 0.9 l -0.9,1.1 0.9,0.4 -0.1,3.5 z m 195.2,1.7 -6.8,7.3 -2.4,0.3 -2.9,-0.4 -2.6,-0.9 -1.4,-1 -6.2,3 -1.9,1.8 1.2,2.9 -1.6,0.5 -0.7,1.5 0.1,2 0.7,1.8 -2,-0.4 -2,-1.6 -1.6,-1.9 -0.6,-1.3 0.3,-5 0.7,-2 1.2,0.7 0.6,-0.8 1.3,-1.4 0.5,-0.7 0.6,0.5 2.5,1.4 1.5,-1.5 0.9,-1.3 1.5,-3 3.9,-3.3 0.6,-1 11.7,-7.3 11.4,-1.8 1.7,-0.5 1.2,2.2 5.6,1.4 1.6,2.7 -3.6,2 -12.3,3.5 z M 710,711 h -2.2 l -2.6,-0.5 -2.6,-0.1 0.7,-1.4 1.2,-0.7 1.4,-0.7 1.4,-1.2 1.1,0.6 2.8,2.3 z m 45.1,-2.6 v 0.6 l -0.8,0.3 -1.9,-0.8 -2.1,0.4 -1.8,0.7 -1.1,-0.3 -1.7,1.7 -4.8,3.5 -1.6,0.7 -1.4,1.2 -3.2,5.3 -1.5,1.2 -9.2,3.1 -4.8,0.4 -1.9,-3.5 1.6,0.8 0.9,-1.4 1.5,-1.1 1.6,-0.3 1.3,1 h 0.8 l 0.8,-0.7 1,-0.3 h 2.5 l 0.4,-0.5 1.6,-3.3 -1.3,0.7 -0.7,-0.8 -0.2,-1.2 0.2,-0.6 1.3,-0.2 12.9,-6.6 v -0.9 l -1.4,-0.9 -0.9,-0.2 v -0.9 l 3.1,-0.9 1.3,-0.9 0.9,-1.1 h 0.9 l 1.5,1.9 1.8,1.7 2.1,1.4 z m 122.6,-8.4 0.5,1.2 -0.6,1.6 0.6,1.3 0.1,0.8 -1,-0.5 -0.9,0.3 -1.6,0.2 -3.2,-3.7 v -0.7 l 0.8,-0.5 2.1,-0.2 1.1,0.7 0.9,-0.7 z m -235.5,-0.9 1,1.6 -1.6,-0.4 -2.2,-2 -1.9,-2.8 -0.5,-2.6 1.1,-2 2,-1.8 2.2,-1.1 1.7,0.1 -2.1,7.3 -1.1,2.4 z m -46.9,-12 2.7,2.2 1.1,0.6 0.9,-0.9 h 0.8 l 1.3,2.1 4,4.9 1.5,4.1 0.1,1 -0.4,0.6 -1.5,0.8 -0.4,0.6 -3.9,4.4 -1.7,-2.7 -1.9,-4 -1.1,-3.8 0.8,-2.1 v -1 l -1.2,-1 -1.3,-2.4 -1.3,-0.4 0.2,-1.2 0.6,-0.8 -0.7,-0.2 -0.1,-0.8 z m 275.6,-1.7 0.4,1 h -2 l -1.2,-0.5 0.1,-0.7 0.7,-0.3 z m -14.6,2.7 1,1.8 1.5,0.8 1.2,1 0.2,2.2 0.9,-1.2 1,-0.5 h 0.9 l 1,0.7 0.3,1.6 -0.8,2.5 0.5,1.6 -0.6,1 -0.2,1.1 h 0.8 v -1 h 0.7 l -0.8,2 H 862 l -3.4,-1 -0.6,0.8 -0.5,2.4 -0.8,0.5 -1.1,-0.2 -0.9,-0.5 -0.8,-0.1 -0.7,0.8 -0.9,-1.3 -0.8,-1.1 -1,-0.6 -1.1,0.2 1,-1.8 1.2,-1.2 -0.7,-2 0.6,-1.8 0.9,-1.5 1.5,-2.3 0.3,-1 -0.3,-1 -0.9,-0.8 -1,0.2 -1.1,0.6 -1.4,-1.7 -1,-2.1 -0.9,-1 -0.8,-0.2 -0.3,-0.7 0.4,-2 1.4,1.8 9.5,4 v 1 z m -128.9,-11.6 1,1.4 0.5,0.5 -0.6,1.1 -0.8,0.7 -1.2,0.1 -1.3,-0.9 -0.2,0.7 -0.6,0.3 -2.2,-3.9 1.9,0.1 1.4,-0.5 2.8,-1.6 z m -61.8,0 -1.9,4.8 v 2 l 1.9,0.9 v 1 h -1.5 v 1 h 1.5 v 0.9 l -1.2,0.4 -0.7,0.8 -0.5,1.3 -0.8,1.3 -0.8,1 -1.4,1.4 -3.1,2.2 -1.8,0.5 -4,-0.2 -1.1,-0.4 -2.4,-2.1 -1.2,-0.4 -0.9,-0.7 v -1.7 l 1.1,-5.4 1.4,-1.6 3.5,-2.2 -0.8,-0.5 -0.8,-0.2 -0.7,0.1 1.6,-2.3 3.2,-2.7 3.5,-2.1 3.3,-1.1 -1.7,2.5 0.9,1 3.1,0.5 1.5,-2 -0.7,-2 1.5,-0.1 1.5,0.1 -0.2,1.1 -0.8,2.1 z m 173.2,-10 h 1 l 0.9,0.5 1.7,0.5 0.4,0.8 -0.8,1.5 -0.2,1.3 1.1,0.5 1.2,0.7 0.8,2.7 0.7,0.8 1,1.7 v 1.6 l -1.3,0.2 v 0.5 l -1.5,0.4 -1.3,-0.1 -1.4,-0.9 v -1.1 l 1.2,-0.8 0.4,-0.9 -1,-0.1 -1.5,0.9 -1.4,-0.2 -0.8,-1.3 0.7,-2.4 -1.2,-0.7 -1.2,-0.6 -0.8,-0.9 -1.4,-1.1 -0.3,-1.8 1.2,-1.3 1.6,0.2 0.3,-0.3 v -1 l 0.9,-0.1 z m -137.7,13.4 -0.3,2.7 -1.1,5.8 -0.2,3.1 -3.2,6.9 -0.6,0.5 -0.8,0.1 -1.6,0.7 -3.9,3.8 -1.3,0.6 -2.1,0.5 -1.3,0.9 -0.2,-0.9 -0.4,-0.2 -0.8,-0.9 -0.5,-1 -0.7,-2.8 -0.4,-1.1 -0.7,-0.8 -3.1,-2 0.5,-0.7 0.1,-0.9 -0.4,-0.8 -1.1,-2.1 -0.2,-1.1 0.3,-1.2 -1.7,-3.4 -1.3,-1.7 -1.5,-0.8 v -0.8 l 1.2,-0.9 1,0.9 1.2,-0.9 4.2,-4.9 7.3,-5.4 0.7,-0.8 1.6,-3 0.9,-0.4 2.2,-0.2 1.3,-1.1 1.8,1 2.8,2.2 1.3,2.5 0.7,2.5 z m -125,-15 1.5,0.9 h 0.7 l 0.6,-0.8 0.5,-0.1 1.3,0.9 0.7,2 0.3,2.5 -0.1,2.7 -0.2,2.6 -0.7,-2 h -0.8 v 1.7 l -0.4,1.3 -0.8,1 -1.1,0.8 -0.8,-1.1 -0.1,-0.6 0.9,-0.2 -1,-0.6 -1,-0.2 -0.9,0.1 -1,0.7 -0.2,-1.4 -0.7,-0.3 -0.6,0.8 -1,-0.6 h -0.8 l -0.7,0.6 -0.7,0.9 -0.4,-1.7 1.3,-1.2 -0.8,-0.8 v -0.7 l 0.5,-0.7 1,-0.7 -0.4,-1.1 0.2,-0.4 1,-0.4 -0.8,-1 3.6,-2.4 z m 294.7,-9.7 -1,0.3 -1.2,-0.8 0.2,-1.8 -0.2,-0.3 0.6,-1.3 1.8,0.3 -1.3,1.7 0.7,0.4 0.9,0.9 z m -40.8,-6.5 0.5,0.4 0.7,1.2 2,0.6 1.9,-0.6 0.6,0.6 0.3,1.2 -0.3,0.8 0.2,0.4 -0.5,0.5 -0.3,1 -0.5,0.5 -0.6,-1.1 -0.9,0.6 -0.5,-0.5 -0.4,-1.7 -0.7,-0.4 -1.6,0.2 -0.4,-0.8 -1.7,-0.2 -0.5,-1.2 -0.6,-0.6 0.4,-1.1 0.5,-0.2 0.2,-0.7 1.1,0.1 z m -19.2,-7.7 1.3,0.6 1.1,0.8 0.7,0.8 0.8,1.4 0.3,1.4 -0.6,0.3 -0.6,-0.6 -1.6,-0.8 h -1 l -1,0.8 -0.6,1.6 -1.1,0.5 0.6,0.9 1.3,1.7 0.3,4.8 -1.2,0.4 -1.2,-0.8 0.1,-0.9 -0.3,-0.7 -1.4,-0.5 -0.4,-1.2 0.5,-3.5 0.4,-0.9 0.2,-0.9 -0.3,-1.3 -0.3,-1.9 0.3,-1.7 1,-0.1 1.3,0.1 z m 17.7,-3.7 0.9,0.3 0.4,1.1 1.6,1 0.8,1.1 -0.8,0.5 -0.9,1.7 -0.4,-0.9 0.2,-1.1 -0.6,0.2 -1.2,-1.9 -0.7,-0.1 -0.6,-1.6 -0.5,-0.6 0.4,-0.5 z m 23.2,-10.7 4.5,0.5 0.8,-0.5 0.8,0.4 1.1,0.9 1.3,1.4 v 0.8 h -0.5 l -1.2,-1 -0.5,-0.1 -0.6,1.3 -0.9,0.5 -1.1,-1.1 -0.7,1.5 -1,-0.5 -0.7,-1.2 -0.1,-1 -0.5,-0.7 -1.3,-0.9 z m -277.4,6.9 1.5,2.1 -0.5,3.1 -1.7,-0.5 -1.2,1.5 -0.7,2.5 -0.3,2.3 -3.6,3.7 -2.5,1.4 -2.4,0.6 1,-5 1,-2.3 1.8,-1.4 v -0.9 l -1.5,-1 v -0.9 l 0.9,-1.5 -0.2,-1.5 -1.2,-0.7 -1.8,0.7 0.8,-3.8 2.3,-2.6 2.7,-2.1 1.9,-2.2 h 0.8 v 2.1 l -0.3,1.1 -0.7,2 -0.5,0.7 z m 99,-11.5 3.3,5.8 0.5,-0.3 0.4,-2.9 1.1,-0.6 3.5,1 1.9,1.7 2.2,0.7 0.3,1 -0.3,1.2 -0.6,1.3 -1.7,0.7 h -2.1 l -1.8,0.6 -0.6,2.6 -2.2,-0.2 -8.5,1.1 0.2,-1.1 -0.2,-1.3 0.2,-1 1.4,-0.5 0.5,-3.3 -0.4,-1.2 -1.7,-0.2 0.6,-2.2 1.3,-1 1.5,-0.6 z m -43.3,15.1 -0.8,0.7 -6.8,3.6 -1.6,1.2 v -2.4 l 0.7,-1.5 v -1.1 l -0.7,0.1 -2.3,-0.1 0.3,-1.2 0.4,-1.1 0.7,-0.9 0.9,-0.6 -1.6,-0.9 2.1,-0.5 1.3,-1.9 0.5,-2.4 V 626 l -0.7,-3.1 -0.1,-1.2 h 1.1 l 2.8,0.3 1,1.2 1,2 0.8,2.2 0.3,1.5 -0.3,1 -1.1,1.3 -0.2,1.2 1.8,1.5 0.5,0.9 0.3,1.5 z m 167.5,-27.5 0.6,2.3 0.1,0.6 -0.7,1.3 -0.5,0.2 -1.2,-0.4 -0.2,-1.2 -0.5,-0.2 -1.3,-0.2 -1.1,0.6 -1.3,-0.7 1,-1 1.3,-0.5 h 0.5 l 1.6,-1.7 1.1,0.1 z m -192.6,0 -2.6,0.3 -5.1,-1 -1.5,-0.9 2.1,-0.4 1.8,-0.8 1.1,-1.3 1.4,-0.9 1.9,-0.2 0.9,0.9 -0.4,2.6 z m 201.7,-0.3 -1,0.9 -0.7,1.1 -0.9,0.2 -1.1,1 v 0.9 l 0.3,1.1 1.1,1.7 v 1.8 l -0.4,0.8 -0.5,0.5 -0.7,-0.5 -1.3,-2.2 0.1,-1 -0.8,-0.8 v -0.7 l -0.6,-0.7 v -2.5 l 0.2,-1 -0.2,-1.3 0.5,-0.4 0.7,0.3 0.4,0.7 0.4,1.7 0.7,0.2 0.6,-1.4 0.9,-0.1 0.3,-0.4 -0.1,-2.7 -0.3,-1 -1.5,-0.4 -0.1,-1.5 0.3,-0.8 0.7,-1 1,-0.4 0.8,0.4 1.1,1.2 v 0.9 l -0.3,0.9 0.4,0.8 0.8,0.3 0.2,0.7 -0.3,1.4 z m -163.1,-7.5 0.5,0.8 1.8,-1.3 2.1,0.3 1.9,1.3 1.1,1.7 1.7,-2.1 3.2,0.6 3.4,1.6 2.5,0.8 -0.7,1 0.9,0.4 0.6,0.8 0.5,1.3 0.3,1.4 -2.8,3.9 -0.8,3.6 -1.3,0.6 -5.2,-0.8 -3.1,-2 -1.9,-0.5 -1.1,-0.6 -1.4,-2.6 -2.5,-1.2 -3.8,-4.3 -4.4,-2 -1.2,-0.9 -0.7,-1.2 -0.8,-1.7 -0.3,-1.7 0.4,-1.2 1.4,-0.5 6.3,0.5 1.6,0.8 v 1.1 h -0.9 v 1 l 1.2,0.1 0.8,0.4 z m -79.9,-5.1 3.2,4.3 -0.8,4.5 -2.9,4.2 -3.3,3.6 -3.1,4.5 -2.2,1.7 -2,-0.8 -0.1,-2 0.6,-7.1 -0.2,-1.2 v -2.7 l 1.2,-3.2 1.9,-2.2 1.7,0.4 0.8,-1 0.6,-1.1 h -1.4 v -0.8 l 1.1,-0.8 1,-0.3 0.9,0.2 0.7,0.9 h 0.8 l 0.1,-0.9 z m 53.4,-32.6 3,1.3 h 8.9 l 1.1,1.3 -0.5,2.9 -1.8,4.7 4.7,3.9 -0.8,0.7 -0.8,0.3 0.1,1.8 -0.7,1.2 -0.8,1 -0.1,0.9 0.8,0.9 1.8,-0.8 1.2,0.8 0.3,2 -1,2.6 -1.6,2.5 -1.5,1.7 0.2,0.6 0.5,2.3 h -0.7 l -0.9,-1.4 -2.6,-2 -1.2,-1.4 -2.1,-6 -0.6,-0.9 -1.7,-0.2 -1.3,-0.6 -1.2,-1.1 -1.2,-1.5 -1.8,-3.6 -1.3,-0.9 -1.9,1.1 -0.6,-4 -2.1,-2.6 -2.4,-2 -1.8,-2.2 h -0.7 l -0.8,1.4 -1,0.4 -0.4,-0.7 0.6,-2.1 -1,-1.1 -1.5,-2.6 -1.3,-1.1 1.3,-0.5 0.1,-0.6 -0.4,-1 -0.3,-1.3 0.4,-1.4 0.9,-1 6.2,-3.4 2.5,-0.5 1.6,0.9 -0.1,1.5 0.2,0.9 0.7,0.4 1.1,0.1 1.2,0.5 1,1 0.5,1.1 -0.4,0.4 v 0.7 l 0.8,3.2 0.3,0.9 z"
         id="GRC3013"
         name="Notio Aigaio" />
      <circle
         cx="746.59998"
         cy="128.8"
         id="0"
         r="0" />
      <circle
         cx="658.09998"
         cy="108.3"
         id="1"
         r="0" />
      <circle
         cx="395.60001"
         cy="565.20001"
         id="2"
         r="0" />
    </g>
  </g>
</svg>
