<?xml version="1.0" encoding="UTF-8"?>
<svg version="1.1" xmlns="http://www.w3.org/2000/svg" xmlns:xlink="http://www.w3.org/1999/xlink" x="0px" y="0px" width="55px" height="50px" viewBox="0 0 55 50" xml:space="preserve">
<g id="Layer_1">
	<circle fill="#000000" cx="10.568" cy="11.753" r="5.571"/>
	<path fill="#000000" id="path2" d="M 17.138672 12.753906 A 5.5710001 5.5710001 0 0 1 11.568359 18.324219 A 5.5710001 5.5710001 0 0 1 11.566406 18.324219 L 11.566406 30.880859 L 20.306641 30.880859 L 20.306641 24.785156 L 24.646484 29.142578 C 25.542484 29.999578 26.461953 30.587891 27.751953 30.587891 C 29.041953 30.587891 30.137203 29.862859 31.033203 29.005859 L 35.197266 24.785156 L 35.197266 30.880859 L 43.9375 30.880859 L 43.9375 12.753906 L 34.550781 12.753906 L 27.753906 19.550781 L 20.955078 12.753906 L 17.138672 12.753906 z "/>
	<path fill="#000000" id="path6" d="M15.701,38.766h-0.099l-2.729-3.664h-0.022v6.172h-0.913v-7.701h0.924l2.783,3.741l2.707-3.741h0.979     v7.701h-0.935v-6.172h-0.022L15.701,38.766z"/>
	<path fill="#000000" id="path8" d="M21.085,38.513c0-1.595,1.111-2.86,2.651-2.86c1.65,0,2.585,1.298,2.585,2.915     c0,0.176,0,0.22-0.011,0.308h-4.302c0.11,1.111,0.891,1.728,1.837,1.728c0.748,0,1.276-0.319,1.727-0.803l0.572,0.539     c-0.583,0.649-1.276,1.045-2.321,1.045C22.295,41.384,21.085,40.24,21.085,38.513z M25.409,38.171     c-0.088-0.957-0.649-1.771-1.694-1.771c-0.913,0-1.595,0.737-1.706,1.771H25.409z"/>
	<path fill="#000000" id="path10" d="M28.077,39.734v-3.202h-0.891v-0.77h0.891v-1.353h0.902v1.353h1.672v0.77h-1.672v3.157     c0,0.682,0.363,0.902,0.902,0.902c0.275,0,0.495-0.066,0.803-0.198v0.759c-0.319,0.165-0.638,0.231-1.034,0.231     C28.759,41.384,28.077,40.9,28.077,39.734z"/>
	<path fill="#000000" id="path12" d="M31.553,38.513c0-1.595,1.111-2.86,2.651-2.86c1.65,0,2.585,1.298,2.585,2.915     c0,0.176,0,0.22-0.011,0.308h-4.302c0.11,1.111,0.891,1.728,1.837,1.728c0.748,0,1.276-0.319,1.727-0.803l0.572,0.539     c-0.583,0.649-1.276,1.045-2.321,1.045C32.763,41.384,31.553,40.24,31.553,38.513z M35.876,38.171     c-0.088-0.957-0.649-1.771-1.694-1.771c-0.913,0-1.595,0.737-1.706,1.771H35.876z"/>
	<path fill="#000000" id="path14" d="M37.987,38.513c0-1.595,1.221-2.86,2.882-2.86s2.894,1.265,2.894,2.86s-1.232,2.871-2.894,2.871     S37.987,40.108,37.987,38.513z M42.838,38.513c0-1.145-0.847-2.068-1.969-2.068c-1.166,0-1.969,0.924-1.969,2.068     c0,1.155,0.836,2.079,1.969,2.079C42.024,40.592,42.838,39.667,42.838,38.513z"/>
</g>
</svg>